<svg xmlns="http://www.w3.org/2000/svg" width="97.092" height="20.516" viewBox="0 0 97.092 20.516">
  <g id="Grupo_33" data-name="Grupo 33" transform="translate(-27.64 -29.305)">
    <path id="Trazado_2" data-name="Trazado 2" d="M54.391,30.8c.077.022.163.053.251.072s.187.024.2.116c.02.11-.073.163-.165.2-.281.12-.56.248-.843.362a7.687,7.687,0,0,0-1.075.479c.548-.038.995-.326,1.515-.221a9.736,9.736,0,0,1-1.412.934l.413.032c-.064.207-.24.224-.385.281-.126.049-.26.082-.382.138-.05.023-.135.063-.094.147a.1.1,0,0,0,.159.032.209.209,0,0,1,.233,0,1.082,1.082,0,0,1-.622.424,22.148,22.148,0,0,0-4.027,2.094,22.448,22.448,0,0,0-2.13,1.511,19.791,19.791,0,0,0-2.439,2.3c-.466.53-.858,1.122-1.338,1.632a1.5,1.5,0,0,1-2.046.195,3.875,3.875,0,0,1-.948-1.045,23.868,23.868,0,0,0-2.1-2.309,7.89,7.89,0,0,0-2.423-1.718A6.133,6.133,0,0,0,32.991,36a9.987,9.987,0,0,0-1.527.07,4.051,4.051,0,0,1,.76,1.471c.253.711.419,1.45.656,2.164A12.151,12.151,0,0,0,34.8,43.434a9.866,9.866,0,0,0,1.039,1.188A8.6,8.6,0,0,0,39.8,46.814a7.589,7.589,0,0,0,2.25.164,9.031,9.031,0,0,0,3.686-1.063,9.774,9.774,0,0,0,3.182-2.783,5.833,5.833,0,0,0,.707-1.153,1.345,1.345,0,0,0-.717-1.9,1.758,1.758,0,0,0-1.2.109c-.329.14-.358.408-.11.681a.744.744,0,0,1-.246,1.282,1.409,1.409,0,0,1-1.931-1.2,2.147,2.147,0,0,1,.608-1.659,4.4,4.4,0,0,1,2.038-1.014,5.017,5.017,0,0,1,1.264-.1,3.607,3.607,0,0,1,2.327.873,3.014,3.014,0,0,1,1.078,2.826,6.84,6.84,0,0,1-1.18,2.929,10.2,10.2,0,0,1-1.82,2.055,11.862,11.862,0,0,1-3.877,2.29,10.279,10.279,0,0,1-2.432.575,9.427,9.427,0,0,1-1.634.094,16.678,16.678,0,0,1-2.654-.343,12.848,12.848,0,0,1-3.059-1.118,10.448,10.448,0,0,1-3.05-2.474,13.141,13.141,0,0,1-2.223-4.053c-.463-1.24-.816-2.516-1.262-3.761a4,4,0,0,0-.905-1.668,1.335,1.335,0,0,0-.523-.316.614.614,0,0,1-.213-1.106,5.953,5.953,0,0,1,2.965-1.463,8.6,8.6,0,0,1,2.3-.162A11.164,11.164,0,0,1,37.989,34.7a13.02,13.02,0,0,1,1.932,1.347c.416.35.767.761,1.181,1.124a20.389,20.389,0,0,1,1.88-1.717c.649-.545,1.327-1.053,2.026-1.533a29.374,29.374,0,0,1,2.984-1.782A30.826,30.826,0,0,1,53.4,29.819a11.909,11.909,0,0,1,2.2-.475,5.612,5.612,0,0,1,.646-.039c.1,0,.237,0,.281.117.052.133-.07.213-.158.272a5.8,5.8,0,0,1-.86.449,2.977,2.977,0,0,0-1.065.534C54.419,30.707,54.375,30.731,54.391,30.8Z" fill="#fb081a"/>
    <g id="Grupo_32" data-name="Grupo 32">
      <path id="Trazado_3" data-name="Trazado 3" d="M115.489,42.324c1.732-.562,3.41-1.037,5.111-1.412a10.076,10.076,0,0,1,2.964-.305.912.912,0,0,1,.906.9.923.923,0,0,1-.831,1.033,30.581,30.581,0,0,0-4.584.862c-1.059.282-2.1.641-3.126,1.027-.5.187-.468.523-.433.888.046.486.44.237.66.24q3.215.03,6.43,0a6.264,6.264,0,0,1,1.361.148.952.952,0,0,1,.785,1.087c-.006.691-.49.81-.951.94a5.52,5.52,0,0,1-1.543.139q-3.792-.017-7.584,0a7.771,7.771,0,0,1-1.424-.133,1.215,1.215,0,0,1-1.012-1.265c-.016-2.42-.031-4.84,0-7.26.017-1.178.431-1.515,1.615-1.515q4.732,0,9.465,0a1.657,1.657,0,0,1,.8.176.93.93,0,0,1,.6.871,1.023,1.023,0,0,1-.608.89,2.093,2.093,0,0,1-1.022.25c-2.345-.009-4.691.008-7.037-.016-.448,0-.6.1-.565.559C115.522,41.029,115.489,41.636,115.489,42.324Z" fill="#fb081a"/>
      <path id="Trazado_4" data-name="Trazado 4" d="M100.2,42.786a22.922,22.922,0,0,1,2.426-1.4,16.586,16.586,0,0,1,4.4-1.256c.332-.046.477-.141.456-.475-.014-.2,0-.4,0-.6a1.331,1.331,0,0,1,1.215-1.466c1-.057,1.79.259,2.038,1.139.1.346-.115.648-.111.993.027,2.259-.016,4.519.028,6.777a1.509,1.509,0,0,1-1.83,1.418c-1.189-.224-1.34-.46-1.34-1.681,0-1.15-.021-2.3.011-3.449.012-.458-.16-.581-.554-.456a17.524,17.524,0,0,0-5.708,2.588,2.689,2.689,0,0,0-1.031,1.892A1.111,1.111,0,0,1,99,47.869a7.689,7.689,0,0,1-.789,0,1.228,1.228,0,0,1-1.185-1.22c.043-2.5.016-5,.016-7.5A1.48,1.48,0,0,1,98.979,37.6c1.143.331,1.246.438,1.223,1.478C100.175,40.291,100.2,41.5,100.2,42.786Z" fill="#fb081a"/>
      <path id="Trazado_5" data-name="Trazado 5" d="M92.186,42.719V39.151a1.493,1.493,0,0,1,2.091-1.485c.96.3,1.182.6,1.184,1.614q.008,3.507,0,7.015a1.443,1.443,0,0,1-.743,1.443,2.519,2.519,0,0,1-2.263-.269,1.067,1.067,0,0,1-.272-.82C92.191,45.339,92.186,44.029,92.186,42.719Z" fill="#fb081a"/>
      <path id="Trazado_6" data-name="Trazado 6" d="M74.011,42.981A16.3,16.3,0,0,0,72.4,41.847c.454-.081.562-.482.76-.755a1.832,1.832,0,0,0-.664-2.807,6.278,6.278,0,0,0-2.515-.557c-2.929-.065-5.86-.032-8.791-.019a1.078,1.078,0,0,0-1.165,1.02q-.02,3.99,0,7.98a.953.953,0,0,0,.779,1.038,6.326,6.326,0,0,0,1.485.124c2.639-.044,5.284.134,7.914-.138a6.858,6.858,0,0,0,3.48-1.147A2.42,2.42,0,0,0,74.011,42.981ZM63.4,40.015c.353-.431,1.285-.094,1.963-.131.282-.015.566,0,.849,0a18.006,18.006,0,0,1,3,.115c.338.086.721.158.743.555.021.372-.287.589-.642.67-.726.165-1.449.368-2.184.46a23.909,23.909,0,0,0-3.348.694c-.38.1-.5.022-.487-.372C63.324,41.323,63.061,40.429,63.4,40.015Zm7.44,5.061a3.29,3.29,0,0,1-1.678.48c-1.9.037-3.793.014-5.807.014A3.171,3.171,0,0,1,64.911,44.3a13.087,13.087,0,0,1,4.358-1.156c1-.079,1.57.144,1.921.834A.764.764,0,0,1,70.841,45.076Z" fill="#fb081a"/>
      <path id="Trazado_7" data-name="Trazado 7" d="M91.081,45.821a15.114,15.114,0,0,0-3-4.763,18.41,18.41,0,0,0-2.929-2.547,3.326,3.326,0,0,0-3.809-.359,13.949,13.949,0,0,0-3.132,2.661,15.01,15.01,0,0,0-3.318,5.124,1.4,1.4,0,0,0,.514,1.714,1.967,1.967,0,0,0,2.652-.683,4.775,4.775,0,0,1,3.05-2.484,18.92,18.92,0,0,1,4.67-.954c.207-.028.463-.307.693.033a7.27,7.27,0,0,1,1.311,2.863,1.549,1.549,0,0,0,1.794,1.443C91,47.869,91.56,47.152,91.081,45.821Zm-6.6-4.017c-.96.113-1.907.294-2.854.48a1.253,1.253,0,0,1-.885.073,18.677,18.677,0,0,1,1.959-2.1c.109-.084.267-.207.438-.108a5.413,5.413,0,0,1,1.674,1.31C85.064,41.78,84.631,41.787,84.484,41.8Z" fill="#fb081a"/>
    </g>
  </g>
</svg>
