<svg xmlns="http://www.w3.org/2000/svg" width="262.133" height="55.389" viewBox="0 0 262.133 55.389">
  <g id="Grupo_40" data-name="Grupo 40" transform="translate(-27.64 -5384.49)">
    <path id="Trazado_8" data-name="Trazado 8" d="M99.863,5388.531c.209.061.44.145.679.2s.5.065.55.314c.055.295-.2.44-.446.546-.759.326-1.51.67-2.276.98a20.126,20.126,0,0,0-2.9,1.292c1.48-.1,2.686-.88,4.089-.6a26.267,26.267,0,0,1-3.812,2.522l1.116.084c-.173.56-.648.607-1.04.759-.341.133-.7.222-1.032.374-.135.062-.365.17-.253.4a.281.281,0,0,0,.428.085.569.569,0,0,1,.63,0,2.93,2.93,0,0,1-1.68,1.147,70.315,70.315,0,0,0-16.621,9.731,53.755,53.755,0,0,0-6.587,6.212c-1.257,1.432-2.315,3.03-3.611,4.407-1.406,1.494-3.3,1.9-5.525.525a10.415,10.415,0,0,1-2.557-2.82,64.865,64.865,0,0,0-5.662-6.234,21.324,21.324,0,0,0-6.542-4.638,16.541,16.541,0,0,0-4.723-1.237,26.854,26.854,0,0,0-4.122.19,10.934,10.934,0,0,1,2.053,3.97c.683,1.92,1.13,3.917,1.771,5.843a32.8,32.8,0,0,0,5.171,10.059,26.874,26.874,0,0,0,2.806,3.209,23.222,23.222,0,0,0,10.7,5.918,20.522,20.522,0,0,0,6.074.441,24.368,24.368,0,0,0,9.951-2.869,26.429,26.429,0,0,0,8.592-7.513A15.928,15.928,0,0,0,87,5418.707c.81-1.867.369-4.471-1.938-5.134a4.716,4.716,0,0,0-3.236.295c-.888.378-.967,1.1-.3,1.838a2.008,2.008,0,0,1-.665,3.46,3.807,3.807,0,0,1-5.215-3.251,5.8,5.8,0,0,1,1.642-4.478,11.869,11.869,0,0,1,5.5-2.737,13.4,13.4,0,0,1,3.412-.282,9.754,9.754,0,0,1,6.283,2.356,8.138,8.138,0,0,1,2.91,7.631,18.469,18.469,0,0,1-3.188,7.907,27.528,27.528,0,0,1-4.911,5.55,32.094,32.094,0,0,1-10.467,6.182,27.781,27.781,0,0,1-6.567,1.552,25.51,25.51,0,0,1-4.41.253,44.867,44.867,0,0,1-7.166-.925,34.511,34.511,0,0,1-8.259-3.02,28.138,28.138,0,0,1-8.234-6.678,35.49,35.49,0,0,1-6-10.942c-1.249-3.347-2.2-6.793-3.406-10.154a10.8,10.8,0,0,0-2.445-4.5,3.585,3.585,0,0,0-1.41-.855,1.656,1.656,0,0,1-.576-2.986,16.07,16.07,0,0,1,8.006-3.949,23.246,23.246,0,0,1,6.218-.438,30.142,30.142,0,0,1,13.005,3.652,35.036,35.036,0,0,1,5.216,3.636c1.123.944,2.071,2.055,3.189,3.035a54.779,54.779,0,0,1,5.074-4.636c1.752-1.471,3.584-2.843,5.471-4.14a79.764,79.764,0,0,1,8.055-4.81,83.14,83.14,0,0,1,14.614-6.258,32.132,32.132,0,0,1,5.934-1.283,15.656,15.656,0,0,1,1.746-.1c.278,0,.639.009.759.317.139.358-.189.574-.427.733a15.755,15.755,0,0,1-2.322,1.212c-.977.442-2.1.612-2.875,1.443C99.94,5388.276,99.82,5388.34,99.863,5388.531Z" fill="#fff"/>
    <g id="Grupo_39" data-name="Grupo 39">
      <path id="Trazado_9" data-name="Trazado 9" d="M264.817,5419.64c4.677-1.519,9.206-2.8,13.8-3.814a27.236,27.236,0,0,1,8-.822,2.462,2.462,0,0,1,2.448,2.431,2.493,2.493,0,0,1-2.243,2.79,82.515,82.515,0,0,0-12.376,2.327c-2.86.761-5.662,1.73-8.441,2.773-1.345.5-1.263,1.412-1.17,2.4.124,1.31,1.189.639,1.782.645q8.68.081,17.362.008a16.852,16.852,0,0,1,3.675.4c1.467.313,2.133,1.288,2.118,2.935-.018,1.866-1.323,2.186-2.568,2.538a15.053,15.053,0,0,1-4.166.376q-10.238-.047-20.474,0a20.846,20.846,0,0,1-3.847-.36,3.277,3.277,0,0,1-2.73-3.415c-.045-6.533-.086-13.067.012-19.6.047-3.18,1.165-4.09,4.362-4.091q12.775,0,25.552-.011a4.491,4.491,0,0,1,2.168.477,2.5,2.5,0,0,1,1.63,2.349,2.758,2.758,0,0,1-1.641,2.4,5.67,5.67,0,0,1-2.757.675c-6.334-.025-12.667.022-19-.043-1.211-.012-1.619.261-1.526,1.508C264.908,5416.143,264.817,5417.78,264.817,5419.64Z" fill="#fff"/>
      <path id="Trazado_10" data-name="Trazado 10" d="M223.53,5420.885a62.343,62.343,0,0,1,6.55-3.765,44.686,44.686,0,0,1,11.886-3.391c.9-.124,1.29-.381,1.231-1.281-.036-.542-.007-1.089-.007-1.633,0-2.205,1.275-3.842,3.28-3.957,2.7-.154,4.833.7,5.5,3.076.262.933-.309,1.749-.3,2.68.072,6.1-.044,12.2.074,18.3.053,2.742-2.712,4.25-4.94,3.829-3.208-.6-3.616-1.241-3.617-4.539,0-3.1-.056-6.21.028-9.311.034-1.235-.429-1.569-1.495-1.232-5.416,1.708-10.8,3.416-15.409,6.988a7.253,7.253,0,0,0-2.783,5.108,3,3,0,0,1-3.236,2.856,20.363,20.363,0,0,1-2.129-.011,3.315,3.315,0,0,1-3.2-3.292c.116-6.75.044-13.5.044-20.256,0-2.995,2.328-4.994,5.233-4.153,3.086.893,3.366,1.181,3.3,3.99C223.474,5414.15,223.53,5417.415,223.53,5420.885Z" fill="#fff"/>
      <path id="Trazado_11" data-name="Trazado 11" d="M201.9,5420.7v-9.632c0-3.216,2.51-5,5.647-4.008,2.591.818,3.191,1.611,3.2,4.356q.018,9.469,0,18.939c-.005,1.615-.414,3.133-2.005,3.9-1.713.821-5.051.346-6.11-.725a2.884,2.884,0,0,1-.734-2.214C201.917,5427.779,201.9,5424.242,201.9,5420.7Z" fill="#fff"/>
      <path id="Trazado_12" data-name="Trazado 12" d="M152.835,5421.412a43.724,43.724,0,0,0-4.341-3.06c1.225-.219,1.517-1.3,2.05-2.04a4.943,4.943,0,0,0-1.791-7.577,16.941,16.941,0,0,0-6.79-1.5c-7.908-.175-15.822-.086-23.734-.053a2.911,2.911,0,0,0-3.145,2.754q-.052,10.772,0,21.546a2.57,2.57,0,0,0,2.1,2.8,17.075,17.075,0,0,0,4.01.337c7.123-.119,14.264.361,21.367-.373,3.307-.342,6.511-1,9.393-3.1A6.53,6.53,0,0,0,152.835,5421.412Zm-28.647-8.007c.954-1.162,3.471-.254,5.3-.354.762-.041,1.528-.006,2.291-.006,2.694.227,5.416-.367,8.1.312.913.231,1.946.426,2.005,1.5.056,1-.774,1.591-1.735,1.809-1.959.446-3.909.993-5.9,1.243a64.5,64.5,0,0,0-9.037,1.873c-1.027.282-1.362.06-1.316-1C123.981,5416.935,123.271,5414.522,124.188,5413.4Zm20.088,13.665a8.863,8.863,0,0,1-4.529,1.294c-5.12.1-10.242.038-15.679.038a8.555,8.555,0,0,1,4.2-3.438,35.335,35.335,0,0,1,11.767-3.121c2.708-.213,4.239.388,5.186,2.251A2.063,2.063,0,0,1,144.276,5427.07Z" fill="#fff"/>
      <path id="Trazado_13" data-name="Trazado 13" d="M198.92,5429.08a40.78,40.78,0,0,0-8.108-12.859,49.6,49.6,0,0,0-7.907-6.876c-3.167-2.36-6.6-2.939-10.283-.969-3.354,1.793-5.829,4.57-8.457,7.182a40.6,40.6,0,0,0-8.959,13.836,3.777,3.777,0,0,0,1.388,4.627c2.26,1.388,6.174.565,7.16-1.843,1.563-3.817,4.823-5.321,8.234-6.707,4.032-1.638,8.353-2,12.61-2.577.558-.075,1.251-.829,1.872.091a19.617,19.617,0,0,1,3.538,7.73c.45,2.883,2.24,4.009,4.843,3.9C198.709,5434.61,200.214,5432.672,198.92,5429.08Zm-17.809-10.845c-2.593.305-5.148.794-7.708,1.3a3.393,3.393,0,0,1-2.389.2c1.825-1.916,3.229-4.089,5.29-5.675.295-.227.72-.56,1.184-.292a14.69,14.69,0,0,1,4.519,3.537C182.676,5418.17,181.507,5418.188,181.111,5418.235Z" fill="#fff"/>
    </g>
  </g>
</svg>