<svg xmlns="http://www.w3.org/2000/svg" width="10.279" height="10.279" viewBox="0 0 10.279 10.279">
  <g id="Grupo_16" data-name="Grupo 16" transform="translate(-609.1 -442.614)">
    <path id="Rect치ngulo_9" data-name="Rect치ngulo 9" d="M1.22,0H8.537a1.22,1.22,0,0,1,1.22,1.22v6.35A2.187,2.187,0,0,1,7.569,9.756H2.187A2.187,2.187,0,0,1,0,7.569V1.22A1.22,1.22,0,0,1,1.22,0Z" transform="translate(609.362 442.875)" fill="none" stroke="#fb081a" stroke-miterlimit="10" stroke-width="0.523"/>
    <path id="Rect치ngulo_10" data-name="Rect치ngulo 10" d="M1.172,0H8.584A1.172,1.172,0,0,1,9.756,1.172V2.355a.449.449,0,0,1-.449.449H.449A.449.449,0,0,1,0,2.355V1.172A1.172,1.172,0,0,1,1.172,0Z" transform="translate(609.362 442.875)" fill="#fb081a"/>
  </g>
</svg>