<svg xmlns="http://www.w3.org/2000/svg" width="71.235" height="70.74" viewBox="0 0 71.235 70.74">
  <g id="Grupo_75" data-name="Grupo 75" transform="translate(-650.699 -4950.118)">
    <g id="Grupo_74" data-name="Grupo 74">
      <path id="Trazado_74" data-name="Trazado 74" d="M672.422,4992.3a5.691,5.691,0,0,0-1.543.68c-3.7,2.21-7.258,5.767-10.965,8.011a5.971,5.971,0,0,1-9.215-4.46v-41.371a5.967,5.967,0,0,1,3.456-4.994l49.921-.045a5.96,5.96,0,0,1,3.536,4.766l.015,19.075a16.307,16.307,0,0,1,6.75,10.035c.65,3.115.27,6.326.368,9.49a6.22,6.22,0,0,1,6.7,3.753c.611,1.6.649,7.158.13,8.781a6.238,6.238,0,0,1-6.828,4.068c.127,2.541.062,5.044-2,6.823-2.281,1.972-4.9,1.425-7.687,1.473a3.848,3.848,0,0,1-2.729,2.342,34.7,34.7,0,0,1-5.6.042c-4.365-.4-4.31-6.58-.278-7.109a33.582,33.582,0,0,1,6,.055,3.83,3.83,0,0,1,2.613,2.31c2-.192,4.3.551,5.98-.82,1.726-1.412,1.317-3.248,1.318-5.249a5.877,5.877,0,0,1-4.31-3.621,8.594,8.594,0,0,1-.419-1.36v-17.715l-.861,2.178c-.636,1.214-2.9,2.862-4.253,2.862H688.655v12.675c0,2.429-2.977,4.856-5.281,5.1-8.4.876-9.523-3.811-8.956-11.031a6.154,6.154,0,0,1,7.122-5.553V4992.3Zm32.836-19.716v-17.715c0-1.113-2-2.942-3.186-2.892l-45.666,0a3.688,3.688,0,0,0-3.336,3.335v40.928a3.581,3.581,0,0,0,4.9,3.1l9.787-7.038h-6.745c-1.033,0-1.033-2.372,0-2.372h20.532A18.342,18.342,0,0,1,684,4978.967,16.558,16.558,0,0,1,705.258,4972.581Zm-8.331.785a14.648,14.648,0,0,0-12.092,9.256c-1.516,4.057-.678,8.271-.99,12.5-.372,1.188-2.825.62-3.863.732a3.757,3.757,0,0,0-3.188,3.187,37.225,37.225,0,0,0-.005,5.2,3.653,3.653,0,0,0,3.336,3.484c2.662.242,5.864-.035,6.164-3.336.549-6.03-1.263-16.465,1.005-21.676,3.75-8.616,15.626-9.394,20.753-1.576,3.6,5.5,1.344,16.608,1.949,23.252.3,3.331,3.634,3.619,6.307,3.331a3.793,3.793,0,0,0,3.151-2.928,34.409,34.409,0,0,0,0-6.006,3.793,3.793,0,0,0-3.151-2.928c-1.445-.156-3.758.7-3.936-1.252-.228-2.493.175-5.335.013-7.87A14.337,14.337,0,0,0,696.927,4973.366Zm-8.272,16.559h13.712a5.345,5.345,0,0,0,1.479-.745c2.293-1.756,1.142-5.119,1.409-7.627-4.027-5.252-12.181-4.384-15.385,1.36a12.426,12.426,0,0,0-1.215,3.529Zm7.963,26.123a1.207,1.207,0,0,0,0,2.308,35.141,35.141,0,0,0,5.3.023,1.2,1.2,0,0,0,.125-2.331A37.339,37.339,0,0,0,696.618,5016.048Z" fill="#fff"/>
      <path id="Trazado_75" data-name="Trazado 75" d="M661.039,4973.354l19.392-.035a1.191,1.191,0,0,1,0,2.378H661.3A1.2,1.2,0,0,1,661.039,4973.354Z" fill="#fff"/>
      <path id="Trazado_76" data-name="Trazado 76" d="M670.527,4959.122l19.391-.035a1.191,1.191,0,0,1,0,2.379H670.789A1.207,1.207,0,0,1,670.527,4959.122Z" fill="#fff"/>
      <path id="Trazado_77" data-name="Trazado 77" d="M678.828,4966.238l18.206-.035a1.191,1.191,0,0,1,0,2.378H679.09A1.2,1.2,0,0,1,678.828,4966.238Z" fill="#fff"/>
      <path id="Trazado_78" data-name="Trazado 78" d="M666.969,4966.238l7.668-.023a1.2,1.2,0,0,1,0,2.354,51.858,51.858,0,0,1-7.543,0A1.2,1.2,0,0,1,666.969,4966.238Z" fill="#fff"/>
      <path id="Trazado_79" data-name="Trazado 79" d="M661.039,4980.469c1.971.153,4.591-.319,6.482-.023a1.2,1.2,0,0,1,0,2.355,42.633,42.633,0,0,1-6.357,0A1.2,1.2,0,0,1,661.039,4980.469Z" fill="#fff"/>
      <path id="Trazado_80" data-name="Trazado 80" d="M661.039,4959.122a37.491,37.491,0,0,1,5.422,0,1.2,1.2,0,0,1-.126,2.332,35.335,35.335,0,0,1-5.3-.023A1.208,1.208,0,0,1,661.039,4959.122Z" fill="#fff"/>
      <path id="Trazado_81" data-name="Trazado 81" d="M694.246,4959.122a14.136,14.136,0,0,1,3.163.035,1.205,1.205,0,0,1-.239,2.3,14.253,14.253,0,0,1-3.038-.058A1.212,1.212,0,0,1,694.246,4959.122Z" fill="#fff"/>
      <path id="Trazado_82" data-name="Trazado 82" d="M671.713,4980.469a14.164,14.164,0,0,1,3.163.035,1.205,1.205,0,0,1-.239,2.3,14.286,14.286,0,0,1-3.038-.058A1.212,1.212,0,0,1,671.713,4980.469Z" fill="#fff"/>
      <path id="Trazado_83" data-name="Trazado 83" d="M661.039,4966.238c.857-.191,2.561-.207,2.708.945.191,1.5-1.474,1.56-2.583,1.387A1.2,1.2,0,0,1,661.039,4966.238Z" fill="#fff"/>
    </g>
  </g>
</svg>