<svg xmlns="http://www.w3.org/2000/svg" width="28.903" height="20.516" viewBox="0 0 28.903 20.516">
  <path id="Trazado_2" data-name="Trazado 2" d="M54.391,30.8c.077.022.163.053.251.072s.187.024.2.116c.02.11-.073.163-.165.2-.281.12-.56.248-.843.362a7.687,7.687,0,0,0-1.075.479c.548-.038.995-.326,1.515-.221a9.736,9.736,0,0,1-1.412.934l.413.032c-.064.207-.24.224-.385.281-.126.049-.26.082-.382.138-.05.023-.135.063-.094.147a.1.1,0,0,0,.159.032.209.209,0,0,1,.233,0,1.082,1.082,0,0,1-.622.424,22.148,22.148,0,0,0-4.027,2.094,22.448,22.448,0,0,0-2.13,1.511,19.791,19.791,0,0,0-2.439,2.3c-.466.53-.858,1.122-1.338,1.632a1.5,1.5,0,0,1-2.046.195,3.875,3.875,0,0,1-.948-1.045,23.868,23.868,0,0,0-2.1-2.309,7.89,7.89,0,0,0-2.423-1.718A6.133,6.133,0,0,0,32.991,36a9.987,9.987,0,0,0-1.527.07,4.051,4.051,0,0,1,.76,1.471c.253.711.419,1.45.656,2.164A12.151,12.151,0,0,0,34.8,43.434a9.866,9.866,0,0,0,1.039,1.188A8.6,8.6,0,0,0,39.8,46.814a7.589,7.589,0,0,0,2.25.164,9.031,9.031,0,0,0,3.686-1.063,9.774,9.774,0,0,0,3.182-2.783,5.833,5.833,0,0,0,.707-1.153,1.345,1.345,0,0,0-.717-1.9,1.758,1.758,0,0,0-1.2.109c-.329.14-.358.408-.11.681a.744.744,0,0,1-.246,1.282,1.409,1.409,0,0,1-1.931-1.2,2.147,2.147,0,0,1,.608-1.659,4.4,4.4,0,0,1,2.038-1.014,5.017,5.017,0,0,1,1.264-.1,3.607,3.607,0,0,1,2.327.873,3.014,3.014,0,0,1,1.078,2.826,6.84,6.84,0,0,1-1.18,2.929,10.2,10.2,0,0,1-1.82,2.055,11.862,11.862,0,0,1-3.877,2.29,10.279,10.279,0,0,1-2.432.575,9.427,9.427,0,0,1-1.634.094,16.678,16.678,0,0,1-2.654-.343,12.848,12.848,0,0,1-3.059-1.118,10.448,10.448,0,0,1-3.05-2.474,13.141,13.141,0,0,1-2.223-4.053c-.463-1.24-.816-2.516-1.262-3.761a4,4,0,0,0-.905-1.668,1.335,1.335,0,0,0-.523-.316.614.614,0,0,1-.213-1.106,5.953,5.953,0,0,1,2.965-1.463,8.6,8.6,0,0,1,2.3-.162A11.164,11.164,0,0,1,37.989,34.7a13.02,13.02,0,0,1,1.932,1.347c.416.35.767.761,1.181,1.124a20.389,20.389,0,0,1,1.88-1.717c.649-.545,1.327-1.053,2.026-1.533a29.374,29.374,0,0,1,2.984-1.782A30.826,30.826,0,0,1,53.4,29.819a11.909,11.909,0,0,1,2.2-.475,5.612,5.612,0,0,1,.646-.039c.1,0,.237,0,.281.117.052.133-.07.213-.158.272a5.8,5.8,0,0,1-.86.449,2.977,2.977,0,0,0-1.065.534C54.419,30.707,54.375,30.731,54.391,30.8Z" transform="translate(-27.64 -29.305)" fill="#fb081a"/>
</svg>