<svg xmlns="http://www.w3.org/2000/svg" width="150.817" height="118.749" viewBox="0 0 150.817 118.749">
  <g id="Grupo_236" data-name="Grupo 236" transform="translate(-28.066 -2322.755)">
    <text id="_1" data-name="1" transform="translate(28.066 2366.755)" fill="#464241" font-size="40.679" font-family="SegoeUI, Segoe UI"><tspan x="0" y="0">1</tspan></text>
    <g id="Grupo_154" data-name="Grupo 154">
      <g id="Grupo_153" data-name="Grupo 153">
        <path id="Trazado_175" data-name="Trazado 175" d="M162.428,2381.649c1.442-.892,2.444-3.445,4.491-2.558,1.3.561,1.146,2.018.4,3.017a54.2,54.2,0,0,1-5.347,5.348,1.856,1.856,0,0,1-2.622.109,72.094,72.094,0,0,1-5.677-5.7,1.872,1.872,0,0,1,.47-2.693c2.039-1.154,3.21,1.587,4.636,2.476a38.164,38.164,0,0,0-18.13-30.674c-.969-.578-4.69-2.207-5.082-2.655a1.858,1.858,0,0,1,1.051-3.072c1-.126,3.531,1.282,4.527,1.817C153.728,2353.827,161.815,2367.4,162.428,2381.649Z" fill="#6fb71e"/>
        <path id="Trazado_176" data-name="Trazado 176" d="M122.379,2424.428c.892,1.442,3.444,2.444,2.558,4.492-.561,1.3-2.019,1.145-3.018.4a54.2,54.2,0,0,1-5.347-5.347,1.855,1.855,0,0,1-.109-2.621,71.981,71.981,0,0,1,5.7-5.678,1.874,1.874,0,0,1,2.694.47c1.154,2.04-1.587,3.21-2.476,4.637a38.162,38.162,0,0,0,30.674-18.131c.613-1.032,2.125-4.616,2.654-5.082a1.859,1.859,0,0,1,3.073,1.051c.136,1.074-1.615,4.168-2.231,5.252A41.581,41.581,0,0,1,122.379,2424.428Z" fill="#6fb71e"/>
        <path id="Trazado_177" data-name="Trazado 177" d="M83.472,2386.427a37.345,37.345,0,0,0,17.9,29.535c1.023.606,4.6,2.109,5.081,2.655a1.851,1.851,0,0,1-1.262,3.094c-1.416.055-6.971-3.388-8.372-4.381a41.518,41.518,0,0,1-17.1-30.907c-.294-.393-.328-.075-.572.118-.752.592-1.8,2.152-2.668,2.345a1.846,1.846,0,0,1-1.986-2.9,64.952,64.952,0,0,1,5.56-5.589,1.855,1.855,0,0,1,2.621-.11,73.424,73.424,0,0,1,5.928,6.132,1.833,1.833,0,0,1-1.61,2.531C85.446,2389.011,84.663,2387.142,83.472,2386.427Z" fill="#6fb71e"/>
        <path id="Trazado_178" data-name="Trazado 178" d="M115.553,2346.61c-11.129,1.055-21.791,8.127-27.488,17.676-.578.969-2.208,4.69-2.655,5.081a1.85,1.85,0,0,1-3.094-1.262c-.036-.948,1.686-4.044,2.253-5.04a41.349,41.349,0,0,1,31.666-20.327c-.52-1-2.541-2.192-2.856-3.171a1.85,1.85,0,0,1,2.846-2.164,64.943,64.943,0,0,1,5.59,5.56,1.856,1.856,0,0,1,.109,2.621,73.4,73.4,0,0,1-6.132,5.929,1.832,1.832,0,0,1-2.53-1.61C113.2,2348.4,114.864,2347.747,115.553,2346.61Z" fill="#6fb71e"/>
        <path id="Trazado_179" data-name="Trazado 179" d="M176.706,2381.459c2.611-.428,2.174,3.232,2.111,4.864a36.872,36.872,0,0,1-.842,6.893,1.774,1.774,0,0,1-3.476-.089c-.249-1.585.524-5.2.666-7.044C175.29,2384.469,174.5,2381.821,176.706,2381.459Z" fill="#6fb71e"/>
        <path id="Trazado_180" data-name="Trazado 180" d="M117.1,2325.287c2.049-.184,6.643-.306,8.526.212a1.735,1.735,0,0,1,.63,3.029c-1.168,1.061-2.219.346-3.525.321-2.5-.046-4.978.123-7.472.189a1.861,1.861,0,0,1-.174-3.49A13.613,13.613,0,0,1,117.1,2325.287Z" fill="#6fb71e"/>
        <path id="Trazado_181" data-name="Trazado 181" d="M150.759,2334.366a2.371,2.371,0,0,1,.839-.041c1.014.134,8.466,5.87,8.732,6.754a1.893,1.893,0,0,1-1.453,2.571c-1.279.128-4.193-2.826-5.349-3.731-.939-.734-3.819-2.306-4.027-3.26A1.842,1.842,0,0,1,150.759,2334.366Z" fill="#6fb71e"/>
        <path id="Trazado_182" data-name="Trazado 182" d="M106.158,2436.535c1.415-.319,3.735.557,5.251.794s3.5.244,4.893.569c2.034.477,2.223,3.6-.865,3.606a41.312,41.312,0,0,1-9.173-1.533C104.5,2439.32,104.467,2436.917,106.158,2436.535Z" fill="#6fb71e"/>
        <path id="Trazado_183" data-name="Trazado 183" d="M75.444,2347.108a1.845,1.845,0,0,1,2.164,2.628c-1.248,1.583-2.37,3.259-3.472,4.945-.69,1.057-1.632,3.568-2.857,3.749-1.9.281-2.5-.974-1.965-2.658a51.054,51.054,0,0,1,5.392-8.258A1.723,1.723,0,0,1,75.444,2347.108Z" fill="#6fb71e"/>
        <path id="Trazado_184" data-name="Trazado 184" d="M105.709,2327.095c2.522-.386,3.55,1.505,1.863,3.227-2.287.754-4.593,1.447-6.87,2.232-1.281.442-3.443,2.069-4.463.263-1.367-2.421,2.263-3.323,3.951-3.961A36.731,36.731,0,0,1,105.709,2327.095Z" fill="#6fb71e"/>
        <path id="Trazado_185" data-name="Trazado 185" d="M88.872,2334.6c1.93-.521,3.422,1.365,2,2.91l-7.921,6.187a1.812,1.812,0,0,1-2.224-2.679,29.463,29.463,0,0,1,4-3.5A30.474,30.474,0,0,1,88.872,2334.6Z" fill="#6fb71e"/>
        <path id="Trazado_186" data-name="Trazado 186" d="M164.64,2346.875c1.554-.322,2.708,1.854,3.524,2.982.744,1.028,3.838,5.671,3.809,6.625a1.873,1.873,0,0,1-2.372,1.729c-1.024-.192-2.026-2.634-2.62-3.53-.638-.962-3.729-5.109-3.834-5.742A2.051,2.051,0,0,1,164.64,2346.875Z" fill="#6fb71e"/>
        <path id="Trazado_187" data-name="Trazado 187" d="M66.57,2363.491c4.024-.889,1.451,4.809,1.039,6.506-.29,1.191-.8,5.163-1.571,5.708a1.92,1.92,0,0,1-2.955-.877c-.294-1.012,1.274-6.962,1.725-8.315C65.124,2365.564,65.484,2363.731,66.57,2363.491Z" fill="#6fb71e"/>
        <path id="Trazado_188" data-name="Trazado 188" d="M134.366,2436.334a1.842,1.842,0,0,1,.658,3.581,31.166,31.166,0,0,1-4.861,1.055c-1.844.295-8.112,1.66-6.474-2.153.575-1.339,3.2-1.013,4.463-1.223C129.816,2437.317,132.968,2436.341,134.366,2436.334Z" fill="#6fb71e"/>
        <path id="Trazado_189" data-name="Trazado 189" d="M168.869,2411.612a3.3,3.3,0,0,1-.487-1.011c-.135-.886,1.782-4.252,2.275-5.361a45.575,45.575,0,0,1,1.728-4.416,1.867,1.867,0,0,1,3.417,1.135c-.108,1.262-3.244,8.182-4.082,9.349A1.825,1.825,0,0,1,168.869,2411.612Z" fill="#6fb71e"/>
        <path id="Trazado_190" data-name="Trazado 190" d="M134.149,2326.862a14.893,14.893,0,0,1,3.194.8,37.132,37.132,0,0,1,6.505,2.369c1.333.835,1.412,2.908-.014,3.332-1.365.407-4.3-1.159-5.764-1.65-1.253-.421-4.859-1.084-5.4-2.1A1.858,1.858,0,0,1,134.149,2326.862Z" fill="#6fb71e"/>
        <path id="Trazado_191" data-name="Trazado 191" d="M63.52,2394.092c-.555-.606-.882-3.812-.982-4.822-.14-1.421-.5-5.3-.056-6.424a1.752,1.752,0,0,1,2.8-.642c1.077.921.558,2.6.67,3.879.136,1.539,1.039,6.725.464,7.75A1.884,1.884,0,0,1,63.52,2394.092Z" fill="#6fb71e"/>
        <path id="Trazado_192" data-name="Trazado 192" d="M174.781,2375.212l-2.77-10.3a1.853,1.853,0,0,1,3.558-.621,43.634,43.634,0,0,1,2.432,9.592C177.986,2375.809,176.161,2376.283,174.781,2375.212Z" fill="#6fb71e"/>
        <path id="Trazado_193" data-name="Trazado 193" d="M150.756,2429.024c2.157-.486,3.455,1.594,1.769,3.136a49.171,49.171,0,0,1-8.523,4.674,1.823,1.823,0,0,1-2.526-1.823c.072-1.7,2.536-2.124,3.809-2.811C146.318,2431.643,150.083,2429.175,150.756,2429.024Z" fill="#6fb71e"/>
        <path id="Trazado_194" data-name="Trazado 194" d="M89.092,2429.023a2.44,2.44,0,0,1,1.6.131c1.1.425,3.42,2.125,4.688,2.819s4.324,1.413,4.41,3.069c.082,1.594-1.287,2.154-2.672,1.791a49.646,49.646,0,0,1-8.391-4.578C87.616,2431.317,87.772,2429.415,89.092,2429.023Z" fill="#6fb71e"/>
        <path id="Trazado_195" data-name="Trazado 195" d="M66.565,2400.127c2.457-.737,3.119,3.379,3.895,5.113.522,1.166,2.477,4.614,2.277,5.594a1.759,1.759,0,0,1-2.3,1.256c-1.19-.272-2.643-3.85-3.161-5.03C66.638,2405.61,64.136,2400.855,66.565,2400.127Z" fill="#6fb71e"/>
        <path id="Trazado_196" data-name="Trazado 196" d="M164.873,2416.273a1.992,1.992,0,0,1,2.093,1.872c-.03.885-1.932,3.006-2.6,3.781a46.945,46.945,0,0,1-4.542,4.56,1.807,1.807,0,0,1-2.6-2.373c.432-.824,2.5-2.462,3.272-3.325C161.433,2419.735,163.686,2416.473,164.873,2416.273Z" fill="#6fb71e"/>
        <path id="Trazado_197" data-name="Trazado 197" d="M75.442,2416.51a2.877,2.877,0,0,1,1.266,0c.788.178,3.158,3.431,3.915,4.278s2.883,2.538,3.314,3.283a1.813,1.813,0,0,1-2.495,2.5c-.278-.16-1.747-1.475-2.077-1.792a41.9,41.9,0,0,1-4.732-5.5C74.1,2418.267,74.146,2416.8,75.442,2416.51Z" fill="#6fb71e"/>
        <path id="Trazado_198" data-name="Trazado 198" d="M140.065,2381.694c3.121-.681,2.351,3.452,2.074,5.266-.228,1.488-1.357,6.23-2.753,6.8a1.85,1.85,0,0,1-2.67-1.743c.039-.615,1.275-3.132,1.523-4.18.219-.925.384-1.951.52-2.894C138.925,2383.792,138.363,2382.064,140.065,2381.694Z" fill="#6fb71e"/>
        <path id="Trazado_199" data-name="Trazado 199" d="M101.829,2382.177c.823.751.4,1.85.53,2.768.141.991.323,2.11.564,3.077.248,1,1.431,3.377,1.474,3.993.141,2.042-2.507,2.785-3.679.715-1.088-1.922-2.342-7.464-1.989-9.59A1.886,1.886,0,0,1,101.829,2382.177Z" fill="#6fb71e"/>
        <path id="Trazado_200" data-name="Trazado 200" d="M107.761,2365.987a1.932,1.932,0,0,1,1.931,2.634c-1.054,1.3-2.421,2.271-3.464,3.59-.892,1.128-2.23,4.3-3.552,4.431-1.941.2-2.223-1.709-1.583-3.2C101.817,2371.766,106.044,2366.276,107.761,2365.987Z" fill="#6fb71e"/>
        <path id="Trazado_201" data-name="Trazado 201" d="M118.465,2361.694c1.781-.159,5.472-.147,7.1.5a1.835,1.835,0,0,1,.308,3.272c-1.219.626-2.736-.119-4.057-.206a22.438,22.438,0,0,0-2.736.013c-1.4.1-4.408,1.34-4.856-.854C113.758,2362.116,116.88,2361.835,118.465,2361.694Z" fill="#6fb71e"/>
        <path id="Trazado_202" data-name="Trazado 202" d="M107.527,2397.394c1.436-.318,3.555,1.737,4.987,2.425,1.217.586,4.943,1.381,5.266,2.468a1.825,1.825,0,0,1-2.048,2.521c-1.911-.188-9.093-3.37-9.474-5.352A1.984,1.984,0,0,1,107.527,2397.394Z" fill="#6fb71e"/>
        <path id="Trazado_203" data-name="Trazado 203" d="M132.555,2397.393a1.763,1.763,0,0,1,2.166,2.4c-.76,1.747-7.884,5.173-9.713,5.054a1.918,1.918,0,0,1-1.718-2.371c.248-1.326,4.032-2.042,5.314-2.658C129.666,2399.308,131.785,2397.565,132.555,2397.393Z" fill="#6fb71e"/>
        <path id="Trazado_204" data-name="Trazado 204" d="M132.558,2365.988c1.764-.363,4.812,3.428,5.8,4.8.856,1.192,3.344,4.56,1.083,5.506-2.363.988-3.313-2.5-4.551-4.085-.374-.478-1.056-1.289-1.465-1.721-1.025-1.08-2.723-1.454-2.123-3.471A2.166,2.166,0,0,1,132.558,2365.988Z" fill="#6fb71e"/>
      </g>
    </g>
  </g>
</svg>
