<svg xmlns="http://www.w3.org/2000/svg" width="161.863" height="161.563" viewBox="0 0 161.863 161.563">
  <g id="Grupo_480" data-name="Grupo 480" transform="translate(-198.797 -7791.125)">
    <path id="Trazado_531" data-name="Trazado 531" d="M275.84,7791.226a81.921,81.921,0,0,1,57.376,20.058c2.3-2.117,4.968-6.282,7.346-1.609l3.478,26.067c-.439,1.5-1.77,1.979-3.255,1.825l-25.113-3.633c-4.328-2.775,1.3-5.921,3.169-8.227-33.291-28.366-85.538-12.576-97.469,29.454-11.925,42.007,22.479,82.085,65.7,77.069,27.461-3.187,49.768-25.766,52.888-53.2.265-2.333.039-5.385.373-7.519a2.4,2.4,0,0,1,2.343-2.078,106.555,106.555,0,0,1,15.775.025,2.4,2.4,0,0,1,2.078,2.343c.7,6.024-1.574,17.268-3.323,23.213-18.679,63.468-102.848,78.488-142.372,25.233C176.218,7868.21,211.558,7794.5,275.84,7791.226Zm79.632,83.263h-10.1c-1.149,32.241-26.463,59.486-58.572,62.831-53.64,5.587-91.2-52.309-63.559-98.922,20.175-34.019,69.371-43.6,99.232-16.313,3.453,3.156,3.356,4.09-.143,7.411l.512.429,15.581,2.255-2.211-16.418c-3.624,3.88-6.107-.578-9-2.834-41.418-32.255-101.773-15.671-119.1,34.014-18.663,53.5,25.866,107.569,81.811,100.123C326.251,7942.228,354.266,7911.1,355.472,7874.489Z" fill="#6fb71e"/>
    <path id="Trazado_532" data-name="Trazado 532" d="M276.472,7825.327c33.226-2.423,58.781,31.084,47.116,62.587-12.9,34.831-59.609,41.86-81.591,11.485C220.388,7869.537,240.106,7827.979,276.472,7825.327Zm.7,26.429V7830.6c-7.9,3.279-11.036,12.062-13.577,19.573Zm5.052-21.155v21.155l13.577-1.582C293.252,7842.675,290.11,7833.88,282.22,7830.6Zm-15.789,1.9a39.424,39.424,0,0,0-18,12.148c.18.771,9.036,4.033,10.418,4.27l2.474-7.475Zm34.105,16.418c1.856-.583,3.775-1.1,5.58-1.837.8-.324,4.98-2.023,4.824-2.722a42.45,42.45,0,0,0-17.983-11.859l5.105,8.943ZM255.7,7869.438l1.759-15.49-12.034-5.039c-.608.016-1.725,2.008-2.093,2.635-3.152,5.368-4.63,11.754-5.314,17.894Zm65.674,0c-.684-6.14-2.162-12.526-5.314-17.894-.368-.627-1.485-2.619-2.093-2.635l-12.034,5.039,1.759,15.49Zm-44.2-12.63-14.827-1.564-1.591,14.194h16.418Zm5.052,0v12.63h16.419l-1.592-14.194ZM255.7,7874.489H238.016c.684,6.14,2.162,12.526,5.314,17.894.368.627,1.485,2.619,2.093,2.635l12.034-5.039Zm21.47,0H260.75l1.591,14.194,14.827-1.564Zm21.471,0H282.22v12.63l14.827,1.564Zm22.733,0H303.69l-1.759,15.49,12.034,5.039c.608-.016,1.725-2.008,2.093-2.635C319.21,7887.015,320.688,7880.629,321.372,7874.489Zm-44.2,17.682-13.577,1.582c2.545,7.5,5.687,16.294,13.577,19.573Zm5.052,0v21.155c7.89-3.279,11.032-12.074,13.577-19.573Zm-23.368,2.841-8.624,3.213c-.258.5-2.035.741-1.79,1.362.108.272,3.134,3.188,3.637,3.626a43.255,43.255,0,0,0,14.356,8.217l-5.105-8.943Zm34.105,16.418a39.168,39.168,0,0,0,18-12.148c-.2-.838-9.016-4-10.418-4.27l-2.474,7.475Z" fill="#6fb71e"/>
  </g>
</svg>
