<svg xmlns="http://www.w3.org/2000/svg" width="150.817" height="119.206" viewBox="0 0 150.817 119.206">
  <g id="Grupo_238" data-name="Grupo 238" transform="translate(-28.066 -2564.509)">
    <text id="_3" data-name="3" transform="translate(28.066 2608.509)" fill="#464241" font-size="40.679" font-family="SegoeUI, Segoe UI"><tspan x="0" y="0">3</tspan></text>
    <g id="Grupo_157" data-name="Grupo 157">
      <path id="Trazado_230" data-name="Trazado 230" d="M117.659,2567.17a59.124,59.124,0,0,1,41.414,14.478c1.661-1.528,3.587-4.535,5.3-1.162l2.511,18.816a1.979,1.979,0,0,1-2.35,1.317L146.41,2598c-3.124-2,.937-4.274,2.287-5.938-24.029-20.475-61.742-9.078-70.354,21.26a43.807,43.807,0,1,0,85.6,17.227c.191-1.684.028-3.887.269-5.428a1.732,1.732,0,0,1,1.691-1.5,77.019,77.019,0,0,1,11.387.018,1.733,1.733,0,0,1,1.5,1.691c.5,4.348-1.136,12.464-2.4,16.755-13.482,45.812-74.237,56.654-102.765,18.214C45.751,2622.737,71.259,2569.533,117.659,2567.17Zm57.479,60.1h-7.293a47.65,47.65,0,0,1-42.278,45.352c-38.718,4.033-65.832-37.757-45.877-71.4,14.563-24.556,50.073-31.475,71.626-11.775,2.493,2.278,2.423,2.953-.1,5.35l.37.309,11.246,1.628-1.6-11.851c-2.616,2.8-4.408-.417-6.5-2.045-29.9-23.282-73.462-11.312-85.971,24.551-13.472,38.62,18.67,77.644,59.051,72.27A54.994,54.994,0,0,0,175.138,2627.27Z" fill="#6fb71e"/>
      <path id="Trazado_231" data-name="Trazado 231" d="M118.115,2591.784c23.983-1.749,42.429,22.437,34.009,45.176-9.31,25.141-43.026,30.215-58.893,8.29C77.633,2623.7,91.866,2593.7,118.115,2591.784Zm.5,19.077v-15.27c-5.7,2.367-7.966,8.707-9.8,14.128Zm3.646-15.27v15.27l9.8-1.142C130.227,2604.306,127.959,2597.958,122.264,2595.591Zm-11.4,1.369a28.452,28.452,0,0,0-12.991,8.768c.13.557,6.523,2.911,7.52,3.082l1.786-5.4Zm24.617,11.85c1.34-.42,2.725-.8,4.028-1.326.574-.234,3.594-1.46,3.482-1.964a30.642,30.642,0,0,0-12.981-8.56l3.685,6.454Zm-32.365,14.814,1.27-11.181-8.686-3.637c-.439.012-1.246,1.449-1.511,1.9a32.776,32.776,0,0,0-3.836,12.916Zm47.4,0a32.775,32.775,0,0,0-3.836-12.916c-.266-.453-1.072-1.89-1.511-1.9l-8.686,3.637,1.27,11.181Zm-31.907-9.117-10.7-1.129-1.149,10.246h11.851Zm3.646,0v9.117h11.851l-1.149-10.246ZM103.12,2627.27H90.357a32.782,32.782,0,0,0,3.836,12.916c.265.453,1.072,1.89,1.511,1.9l8.686-3.637Zm15.5,0H106.767l1.149,10.245,10.7-1.129Zm15.5,0H122.264v9.116l10.7,1.129Zm16.41,0H137.762l-1.27,11.181,8.686,3.637c.439-.012,1.245-1.449,1.511-1.9A32.781,32.781,0,0,0,150.525,2627.27Zm-31.907,12.763-9.8,1.142c1.837,5.412,4.1,11.761,9.8,14.128Zm3.646,0v15.27c5.695-2.367,7.963-8.716,9.8-14.128Zm-16.867,2.05-6.225,2.32c-.186.361-1.469.535-1.292.983.078.2,2.262,2.3,2.625,2.617a31.218,31.218,0,0,0,10.363,5.931l-3.685-6.455Zm24.617,11.851a28.267,28.267,0,0,0,12.991-8.768c-.142-.6-6.508-2.889-7.52-3.083l-1.786,5.4Z" fill="#6fb71e"/>
    </g>
  </g>
</svg>