<svg xmlns="http://www.w3.org/2000/svg" width="161.146" height="160.708" viewBox="0 0 161.146 160.708">
  <g id="Grupo_478" data-name="Grupo 478" transform="translate(-693.249 -7537.486)">
    <g id="Grupo_477" data-name="Grupo 477">
      <path id="Trazado_511" data-name="Trazado 511" d="M768.72,7575.23a51.914,51.914,0,0,1,10.452.067,9.352,9.352,0,0,1,6.1,4.878c.336.7.347,1.912.78,2.359.132.137,3.207,1.529,3.457,1.591,1.2.3,2.631-1.132,4-1.364,5.557-.946,10.191,3.741,13.422,7.767a9.156,9.156,0,0,1,2.037,7.066c-.164,1.486-1.547,3.279-1.546,4.078,0,.2,1.433,3.552,1.57,3.741.423.581,2.051.755,2.9,1.18a10.012,10.012,0,0,1,3.722,3.809c1.327,2.691,1.346,11.925.1,14.648a9.494,9.494,0,0,1-6.593,5.017l-1.669,3.688c.851,2.476,1.762,3.726,1.528,6.53-.307,3.692-5.018,8.383-7.853,10.659a9.156,9.156,0,0,1-7.066,2.036c-1.486-.164-3.28-1.546-4.078-1.546-.2,0-3.552,1.433-3.741,1.571-.581.422-.755,2.051-1.18,2.9a9.992,9.992,0,0,1-3.81,3.722c-2.69,1.328-11.924,1.347-14.647.1a9.5,9.5,0,0,1-5.017-6.594l-3.688-1.669c-2.476.852-3.726,1.762-6.53,1.529-3.692-.308-8.383-5.018-10.659-7.854a9.157,9.157,0,0,1-2.037-7.066c.165-1.486,1.547-3.279,1.547-4.078,0-.2-1.434-3.552-1.571-3.741-.422-.58-2.051-.755-2.9-1.18a10,10,0,0,1-3.722-3.809c-1.181-2.393-1.237-10.067-.743-12.78a9.41,9.41,0,0,1,4.666-6c.737-.351,1.957-.441,2.4-.738a21.52,21.52,0,0,0,1.812-4.125c.024-.777-1.224-2.35-1.415-3.472-.945-5.556,3.739-10.189,7.767-13.423a9.154,9.154,0,0,1,7.066-2.036c1.486.164,3.28,1.546,4.078,1.546a15.225,15.225,0,0,0,4.169-2.085c.269-.573.281-1.431.64-2.184A9.477,9.477,0,0,1,768.72,7575.23Zm11.273,5.993a5.041,5.041,0,0,0-1.95-1.032,53.629,53.629,0,0,0-8.7.05c-3.256.721-2.148,4.392-3.536,5.88a7.332,7.332,0,0,1-2.027,1.111,54.772,54.772,0,0,1-6.113,2.372c-2.857.264-4.223-3.381-7.362-1.412a65.322,65.322,0,0,0-6.463,6.715c-1.013,3.231,2.018,3.93,1.755,6.766a75.811,75.811,0,0,1-3.194,7.8c-1.515,1.872-5.609.457-6.218,4.138a50.556,50.556,0,0,0,.128,8.94c.883,3.075,4.536,1.9,5.959,3.456.871,2.443,3.931,7.316,3.171,9.73-.54,1.718-3.041,2.772-1.258,5.616a65.378,65.378,0,0,0,6.715,6.463c3.231,1.012,3.931-2.018,6.767-1.756a76.114,76.114,0,0,1,7.8,3.195c1.872,1.515.457,5.609,4.139,6.218,1.666.275,7.837.173,9.316-.389,2.775-1.053,1.493-4.25,3.079-5.7,2.444-.871,7.317-3.931,9.731-3.172,1.718.541,2.771,3.042,5.615,1.258a65.328,65.328,0,0,0,6.463-6.715c1.013-3.231-2.018-3.93-1.755-6.766a73.388,73.388,0,0,1,3.083-7.6c1.664-2.339,5.7-.316,6.318-4.665.253-1.8.221-7.417-.377-8.992-1.053-2.776-4.251-1.494-5.7-3.08-.87-2.443-3.93-7.316-3.171-9.73.54-1.718,3.042-2.772,1.258-5.616a65.262,65.262,0,0,0-6.715-6.462c-3.231-1.013-3.931,2.017-6.766,1.755a76.034,76.034,0,0,1-7.8-3.195C780.58,7585.114,781.415,7582.71,779.993,7581.223Z" fill="#6fb71e"/>
      <path id="Trazado_512" data-name="Trazado 512" d="M722.276,7556.09a6.084,6.084,0,0,1,2.362,0c3.738.559,8.308,2.784,12.13,3.557,1.511.86,2.461,5.515,3.006,7.35.508,1.714,1.873,5.631,1.968,7.14a2.615,2.615,0,0,1-.314,1.415l-9.329,9.5c-1.362,1.249-2.924.434-4.474.056a86.465,86.465,0,0,1-10.466-3.029,3.239,3.239,0,0,1-1.8-1.963,86.876,86.876,0,0,1-3.278-11.468c-.309-2.066-.07-2.507,1.171-4.013C714.227,7563.449,721.381,7556.323,722.276,7556.09Zm11.306,7.839-9.482-2.59-6.711,6.511,2.527,9.747,9.51,2.787,6.769-6.636Z" fill="#6fb71e"/>
      <path id="Trazado_513" data-name="Trazado 513" d="M816.1,7556.7c.941-.124,10.456,2.687,12.009,3.235,1.489.524,2.394.57,3.157,2.178,1.067,2.252,2.382,7.814,3.033,10.461.472,1.916,1.125,2.651-.09,4.44a89.885,89.885,0,0,1-8.6,8.659c-1.866,1.406-2.435.848-4.471.373-1.781-.416-10.836-2.872-11.71-3.666s-3.4-10.072-3.822-11.867c-.389-1.67-.983-2.534.083-4.135a90.722,90.722,0,0,1,8.607-8.65A5.022,5.022,0,0,1,816.1,7556.7Zm10.687,8.165-9.821-2.609-6.381,6.533,2.531,9.747,9.748,2.532,6.533-6.382Z" fill="#6fb71e"/>
      <path id="Trazado_514" data-name="Trazado 514" d="M817.044,7649.91c3.964,1.066,8.133,1.865,12.007,3.229,1.424.5,2.462.6,3.161,2.174a86.8,86.8,0,0,1,3.287,11.46c.314,1.871.342,2.432-.807,3.928a73.384,73.384,0,0,1-7.671,7.7c-1.49,1.227-1.963,1.5-4.013,1.171-3.728-.589-8.275-2.88-12.132-3.556-1.555-.832-2.465-5.514-3.005-7.351-.478-1.63-1.883-5.76-1.967-7.141a2.621,2.621,0,0,1,.313-1.414l9.329-9.5Zm10.683,8.164-9.819-2.613-6.637,6.77,2.792,9.507,9.742,2.529,6.512-6.712Z" fill="#6fb71e"/>
      <path id="Trazado_515" data-name="Trazado 515" d="M724.08,7649.048c1.483-.03,9.538,2.5,11.456,3.149,2.911.984,2.831.732,3.85,3.681.876,2.532,2.923,8.869,3.161,11.282a3.106,3.106,0,0,1-.882,2.46,82.543,82.543,0,0,1-8.317,8.315,5.618,5.618,0,0,1-1.8,1.028l-13.208-3.606a3.154,3.154,0,0,1-2.037-2.042,86.135,86.135,0,0,1-3.548-12.487,3.081,3.081,0,0,1,.967-2.521,86.516,86.516,0,0,1,8.478-8.467A3.768,3.768,0,0,1,724.08,7649.048Zm10.448,8.079-9.747-2.526-6.712,6.688,2.789,9.509,9.821,2.609,6.382-6.532Z" fill="#6fb71e"/>
      <path id="Trazado_516" data-name="Trazado 516" d="M773.114,7668.109a3.031,3.031,0,0,1,1.881.176,103.768,103.768,0,0,1,11.49,6.4,2.35,2.35,0,0,1,1.152,1.986,87.222,87.222,0,0,1,.008,12.574c-.227,2.506-3.664,3.7-5.766,4.9-1.269.728-6.989,4.01-7.907,4.048a3.213,3.213,0,0,1-1.531-.369,95.672,95.672,0,0,1-11.281-6.29,2.357,2.357,0,0,1-1.152-1.986,87.37,87.37,0,0,1-.008-12.575,2.452,2.452,0,0,1,1.16-2.291Zm9.444,10.026-8.635-4.709-8.693,4.626-.143,10.025,8.635,4.708,8.693-4.626Z" fill="#6fb71e"/>
      <path id="Trazado_517" data-name="Trazado 517" d="M706.586,7602.836a3.035,3.035,0,0,1,1.882.176,104.009,104.009,0,0,1,11.489,6.4,2.352,2.352,0,0,1,1.152,1.986,87.215,87.215,0,0,1,.008,12.574c-.227,2.506-3.664,3.7-5.766,4.9-1.269.728-6.989,4.01-7.906,4.048a3.216,3.216,0,0,1-1.532-.369,95.4,95.4,0,0,1-11.281-6.29,2.353,2.353,0,0,1-1.152-1.986,87.506,87.506,0,0,1-.008-12.574,2.454,2.454,0,0,1,1.16-2.292Zm9.444,10.026-8.635-4.709-8.693,4.627-.143,10.024,8.636,4.709,8.692-4.626Z" fill="#6fb71e"/>
      <path id="Trazado_518" data-name="Trazado 518" d="M773.114,7537.564a3.041,3.041,0,0,1,1.881.175,104.247,104.247,0,0,1,11.49,6.4,2.355,2.355,0,0,1,1.152,1.987,87.215,87.215,0,0,1,.008,12.574,3.116,3.116,0,0,1-.364,1.518c-.388.683-6.968,4.285-8.227,4.954-2.075,1.1-4.364,3.01-6.613,2.11a95.544,95.544,0,0,1-11.281-6.29,2.356,2.356,0,0,1-1.152-1.986,87.376,87.376,0,0,1-.008-12.575,2.455,2.455,0,0,1,1.16-2.292Zm9.444,10.026-8.635-4.709-8.693,4.626-.143,10.025,8.635,4.708,8.693-4.626Z" fill="#6fb71e"/>
      <path id="Trazado_519" data-name="Trazado 519" d="M839.642,7602.836a3.031,3.031,0,0,1,1.881.176,104.021,104.021,0,0,1,11.49,6.4,2.354,2.354,0,0,1,1.152,1.986,87.356,87.356,0,0,1,.008,12.574,3.119,3.119,0,0,1-.364,1.519c-.388.683-6.968,4.285-8.227,4.954-2.075,1.1-4.364,3.01-6.613,2.109a95.323,95.323,0,0,1-11.281-6.29,2.35,2.35,0,0,1-1.152-1.986,87.207,87.207,0,0,1-.008-12.574,2.453,2.453,0,0,1,1.16-2.292Zm9.444,10.026-8.635-4.709-8.693,4.627-.143,10.024,8.635,4.709,8.693-4.626Z" fill="#6fb71e"/>
      <path id="Trazado_520" data-name="Trazado 520" d="M749.873,7675.045c1.506,1.648-.074,3.425.1,3.663,2.289.559,6.509,1.578,4.67,4.833-1.634,2.892-6.72-.864-7.177-.436a2.63,2.63,0,0,1-3.765,2.348c-1.378-.627-3.32-6.853-2.665-8.305.484-1.073,6.356-2.988,7.5-2.823A3.312,3.312,0,0,1,749.873,7675.045Z" fill="#6fb71e"/>
      <path id="Trazado_521" data-name="Trazado 521" d="M806.058,7559.063a33.063,33.063,0,0,1-6.185,2.158c-2.838.309-3.122-2.068-2.642-4.277-2.133-.867-5.75-1.367-4.342-4.619s6.855.644,7.29.237a2.585,2.585,0,0,1,4.954-1.029c.42.855,1.7,5.322,1.578,6.124A5.057,5.057,0,0,1,806.058,7559.063Z" fill="#6fb71e"/>
      <path id="Trazado_522" data-name="Trazado 522" d="M837.844,7588.962c2.224-1.332,4.774-.1,4.328,2.586-.191,1.159-2.265,6.022-3.375,6.375-1.186.377-6.485-1.538-7.4-2.361a2.554,2.554,0,0,1,2.049-4.406c-1.442-1.95-2.693-5.922.817-6.27C836.478,7584.666,837.227,7587.309,837.844,7588.962Z" fill="#6fb71e"/>
      <path id="Trazado_523" data-name="Trazado 523" d="M716.3,7640.516c1.34,1.632.1,3.922-1.784,4.479,3.9,6.27-3.71,8.4-4.717,1.4-.611-.072-.83.5-1.418.619-2.094.431-3.708-1.012-3.145-3.136a40.179,40.179,0,0,1,2.416-5.124,2.391,2.391,0,0,1,2-1.168A26.5,26.5,0,0,1,716.3,7640.516Z" fill="#6fb71e"/>
      <path id="Trazado_524" data-name="Trazado 524" d="M798.829,7675.674a2.794,2.794,0,0,1,.728,2.1c.421.457,3.464-2.744,5.509-.646,2.315,2.376-.939,4.826-3.315,5.041,1.306,2.718.1,4.943-3.081,4.175-1.584-.382-5.8-2.032-6.013-3.736-.118-.945,1.923-6.3,2.6-6.934A2.721,2.721,0,0,1,798.829,7675.674Z" fill="#6fb71e"/>
      <path id="Trazado_525" data-name="Trazado 525" d="M748.806,7560a4.238,4.238,0,0,1-.72-2.11c-6.207,3.975-9.325-2.809-2.193-4.4-1.072-1.69-.508-4.292,1.729-4.419a33.8,33.8,0,0,1,6.232,2.268,2.517,2.517,0,0,1,1.072,2.861,57.642,57.642,0,0,1-2.3,5.56A2.8,2.8,0,0,1,748.806,7560Z" fill="#6fb71e"/>
      <path id="Trazado_526" data-name="Trazado 526" d="M712.632,7594.612c-.046,2.293-1.837,4.437-4.2,3.1s-.173-4.595-.517-4.969a2.442,2.442,0,0,1-1.887-3.641c.622-1.075,5.847-3.384,7.081-3.306,1.714.108,3.486,4.291,3.933,5.817.362,1.238.539,1.992-.467,3.016C714.679,7596.553,712.968,7594.305,712.632,7594.612Z" fill="#6fb71e"/>
      <path id="Trazado_527" data-name="Trazado 527" d="M839.409,7642.935c3.213.529,3.741,3.366.746,4.986-1.546.836-5.162,2.436-6.692,1.431-.848-.557-2.908-5.808-2.861-6.88.1-2.3,2.681-3.025,4.41-1.732C836.13,7634.862,842.746,7637.966,839.409,7642.935Z" fill="#6fb71e"/>
      <path id="Trazado_528" data-name="Trazado 528" d="M780.113,7592.4c.042.045.9.05,1.243.158,25.09,7.889,24.929,42.688.159,50.382a13.489,13.489,0,0,0-1.1-5.022c20.723-6.307,19.04-36.908-2.446-41.019-1.608-.308-3.511-.179-4.861-.474a2.569,2.569,0,0,1-1.315-4.006c.667-.954,5.026-3.607,6.241-3.451C780.608,7589.3,779.888,7592.163,780.113,7592.4Z" fill="#6fb71e"/>
      <path id="Trazado_529" data-name="Trazado 529" d="M766.289,7592.729a9.563,9.563,0,0,0,.944,5.017c-4.1.909-8.177,4.085-10.617,7.431-9.179,12.587-2.2,30.667,13.063,33.588,2.431.465,6.818-.328,6.676,3.068-.069,1.641-4.778,4.831-6.147,4.893-3.2.146-2.4-3.169-2.675-3.461-.043-.046-.9-.05-1.244-.158C741.144,7635.2,741.358,7600.186,766.289,7592.729Z" fill="#6fb71e"/>
      <path id="Trazado_530" data-name="Trazado 530" d="M771.864,7604.106c18.62-2.549,21.519,25.846,3.333,27.5C757.137,7633.24,754.535,7606.479,771.864,7604.106Zm.627,5.023c-12.181,1.738-8.066,20.968,4.147,17.012C786.561,7622.926,783.155,7607.608,772.491,7609.129Z" fill="#6fb71e"/>
    </g>
  </g>
</svg>
