<svg xmlns="http://www.w3.org/2000/svg" width="161.358" height="99.266" viewBox="0 0 161.358 99.266">
  <g id="Grupo_482" data-name="Grupo 482" transform="translate(-693.143 -8053.226)">
    <path id="Trazado_533" data-name="Trazado 533" d="M733.242,8065.1c6,3.372,12.634,2.626,19.23,2.9,2.132.089,9.91,1.041,11.318.519,1.185-.439,2.969-1.951,4.594-2.595,11.127-4.41,27.077,1.72,38.737,1.358,1.227-.038,7.051-1.246,7.316-2.377a5.694,5.694,0,0,1,2.93-6.1c2.148-1.179,11.437-4.969,13.666-5.391,4.054-.769,5.673.956,7.271,4.269,6.05,12.548,10,27.084,15.946,39.794a6.238,6.238,0,0,1-2.574,7.145,102.618,102.618,0,0,1-13.6,5.461c-3.079.813-4.428-.425-6.8-2.144l-7.016,5.233a10.186,10.186,0,0,1-11.215,14.3c-1.11,4.884-6.043,9.047-11.125,7.763a9.883,9.883,0,0,1-11.891,8.786c-1.533,5.635-6.711,9.34-12.572,7.585-2.758-.825-4.593-3.113-7.011-4.524l-.541.188c-3.794,6.52-12.708,7.266-16.439.278-.333-.623-.545-2.208-.9-2.515-.5-.43-2.358-.346-3.155-.619-3.254-1.114-4.962-3.333-6.092-6.494-5.282.295-9.721-2.953-10.146-8.373-5.757-.719-9.43-5.054-8.482-10.944.147-.912,1.569-3.385,1.312-3.822l-9.912-6.464c-1.648,1.187-3.061,2.3-5.288,2.092-1.386-.131-12.617-4.673-14.246-5.56a5.967,5.967,0,0,1-3.048-7.362c5.836-12.71,9.873-26.99,15.825-39.553,1.547-3.265,3-5.235,7.094-4.6,2,.311,11.427,4.155,13.453,5.244C732.389,8059.935,734.021,8062.2,733.242,8065.1Zm-5.791-1.385L714.9,8059.01l-15.772,39.825.295,1,12.234,4.849Zm105.394-4.708-12.551,4.708-.058.5,16.035,40.468c3.37-1.823,8.388-2.759,11.577-4.6.413-.239.846-.358.824-.961Zm-16.183,11.506c-2.978,1.26-6.612,2.553-9.885,2.553-10.525,0-28.661-5.806-37.822-1.176-3.768,1.9-16.559,12.446-19.9,15.7-3.594,3.5-1.331,7.516,3.346,6.939,4.852-2.208,9.69-6.842,14.4-8.977,5.382-2.441,8.889,2.7,13.307,5.16a32.9,32.9,0,0,0,13.371,4.248c3.329.191,5.668-1.014,8.946.405l17,12.864a1.231,1.231,0,0,0,1.209.255c.505-.142,8.451-5.615,8.51-6.136Zm-60.052,3.6c-8.577-.837-17.639.487-25.527-3.6l-12.543,32.668,11.3,7.264.458-.067c3.157-7.045,13.65-9.388,17.383-1.631.408.846.878,3.219,1.1,3.4.339.279,2.673.612,3.513.98,2.626,1.15,4.054,3.564,5.012,6.142a9.133,9.133,0,0,1,10.14,7.656c8.506.1,12.1,9.276,6.789,15.665,1.554,1,3.776,3.579,5.6,3.792a4.011,4.011,0,0,0,4.29-5.034c-.731-2.719-6.558-3.975-5.428-7.559,1.894-6,9.99,4.287,12.636,4.679a4,4,0,0,0,3.76-6.549c-1.734-2.144-11.937-7.717-7.553-10.871a3.055,3.055,0,0,1,3.137-.275c3.017,1.658,8.728,8.116,11.672,8.837a3.936,3.936,0,0,0,4.244-6.056c-2.14-3.307-15.822-9.475-7.006-12.724,1.815.041,9.417,7.4,11.509,8.941,2.258,1.661,3.833,3.1,6.625,1.25,2.385-1.578,2.4-4.439.612-6.511l-18.23-13.951c-2.206-.389-4.277.268-6.634.158-8.686-.408-16.81-4.722-23.468-10-7.439,2.607-16.073,13.921-24.521,8.006-4.882-3.418-5.156-10.522-1.115-14.734Zm-17.023,35.343a5.066,5.066,0,0,0-2.017.813,89.378,89.378,0,0,0-6.8,8.3c-1.359,2.321-.118,5.173,2.643,5.183,2.692.01,6.732-7.36,8.961-9.039C743.826,8112.6,742.233,8109.33,739.587,8109.461Zm8.306,8.594a4.685,4.685,0,0,0-1.86,1.04c-.694.62-6.533,7.759-6.77,8.331-1.334,3.225,1.6,5.914,4.594,4.235,1.653-2.284,7.57-7.727,7.741-10.263A3.185,3.185,0,0,0,747.893,8118.055Zm10.069,6.833a4.693,4.693,0,0,0-1.86,1.039c-.636.568-6.567,7.836-6.771,8.332-.972,2.369.45,5.125,3.06,4.869,2.534-.249,7.1-7.694,9.057-9.65C762.383,8127.169,760.483,8124.4,757.962,8124.888Zm8.975,7.917a4.126,4.126,0,0,0-1.882,1.356c-.933.923-6.028,7.138-6.363,8.019-1.373,3.6,2.19,6.037,4.939,3.863.618-.488,6.858-8.157,7.091-8.729C771.873,8134.482,769.93,8132.125,766.937,8132.805Z" fill="#6fb71e"/>
  </g>
</svg>
