<svg xmlns="http://www.w3.org/2000/svg" width="161.562" height="161.227" viewBox="0 0 161.562 161.227">
  <g id="Grupo_475" data-name="Grupo 475" transform="translate(-199.042 -7284.193)">
    <g id="Grupo_474" data-name="Grupo 474">
      <path id="Trazado_481" data-name="Trazado 481" d="M337.807,7362.5c2-1.236,3.386-4.772,6.223-3.544,1.8.777,1.586,2.8.558,4.181a75.049,75.049,0,0,1-7.408,7.408c-1.367,1.019-2.208,1.139-3.632.152a100.068,100.068,0,0,1-7.866-7.9,2.6,2.6,0,0,1,.651-3.732c2.826-1.6,4.447,2.2,6.424,3.43-.9-17.267-10.238-33.617-25.118-42.5-1.343-.8-6.5-3.057-7.04-3.678a2.575,2.575,0,0,1,1.455-4.257c1.381-.174,4.892,1.776,6.273,2.518C325.754,7323.952,336.959,7342.756,337.807,7362.5Z" fill="#6fb71e"/>
      <path id="Trazado_482" data-name="Trazado 482" d="M282.323,7421.763c1.236,2,4.772,3.386,3.544,6.223-.777,1.795-2.8,1.586-4.181.558a75.323,75.323,0,0,1-7.408-7.408c-1.019-1.367-1.139-2.208-.151-3.632a99.737,99.737,0,0,1,7.895-7.866,2.594,2.594,0,0,1,3.731.651c1.6,2.826-2.2,4.447-3.43,6.424,17.214-.869,33.678-10.27,42.5-25.118.849-1.431,2.944-6.4,3.677-7.041a2.576,2.576,0,0,1,4.258,1.456c.187,1.488-2.238,5.774-3.092,7.276C320.039,7410.2,301.767,7420.9,282.323,7421.763Z" fill="#6fb71e"/>
      <path id="Trazado_483" data-name="Trazado 483" d="M228.422,7369.116c.769,16.487,10.672,32.556,24.8,40.919,1.417.839,6.373,2.92,7.04,3.678a2.565,2.565,0,0,1-1.75,4.286c-1.961.076-9.656-4.694-11.6-6.07a57.524,57.524,0,0,1-23.7-42.818c-.407-.545-.454-.1-.793.163-1.041.82-2.491,2.982-3.7,3.249a2.557,2.557,0,0,1-2.752-4.023,89.981,89.981,0,0,1,7.7-7.744c1.359-1.011,2.2-1.146,3.632-.151a101.735,101.735,0,0,1,8.213,8.494,2.539,2.539,0,0,1-2.231,3.506C231.155,7372.7,230.071,7370.107,228.422,7369.116Z" fill="#6fb71e"/>
      <path id="Trazado_484" data-name="Trazado 484" d="M272.866,7313.954c-15.417,1.462-30.189,11.258-38.082,24.488-.8,1.342-3.058,6.5-3.678,7.04a2.564,2.564,0,0,1-4.286-1.749c-.051-1.314,2.336-5.6,3.121-6.982a57.286,57.286,0,0,1,43.871-28.162c-.722-1.381-3.521-3.037-3.958-4.394a2.562,2.562,0,0,1,3.944-3,90.249,90.249,0,0,1,7.744,7.7c1.01,1.359,1.146,2.2.151,3.632-.576.83-7.932,8.032-8.495,8.213a2.539,2.539,0,0,1-3.506-2.231C269.6,7316.429,271.912,7315.529,272.866,7313.954Z" fill="#6fb71e"/>
      <path id="Trazado_485" data-name="Trazado 485" d="M357.588,7362.234c3.618-.593,3.012,4.477,2.925,6.738s-.5,7.538-1.167,9.55a2.458,2.458,0,0,1-4.815-.124c-.346-2.2.725-7.209.922-9.758C355.626,7366.4,354.533,7362.735,357.588,7362.234Z" fill="#6fb71e"/>
      <path id="Trazado_486" data-name="Trazado 486" d="M275.009,7284.413c2.84-.255,9.2-.425,11.813.293a2.4,2.4,0,0,1,.873,4.2c-1.619,1.469-3.075.479-4.884.445-3.467-.065-6.9.17-10.351.262-2.325-.53-2.423-4.17-.242-4.836A18.757,18.757,0,0,1,275.009,7284.413Z" fill="#6fb71e"/>
      <path id="Trazado_487" data-name="Trazado 487" d="M321.641,7296.991a3.257,3.257,0,0,1,1.163-.057c1.4.186,11.728,8.132,12.1,9.357a2.621,2.621,0,0,1-2.012,3.562c-1.773.178-5.809-3.916-7.411-5.169-1.3-1.018-5.291-3.2-5.579-4.517A2.551,2.551,0,0,1,321.641,7296.991Z" fill="#6fb71e"/>
      <path id="Trazado_488" data-name="Trazado 488" d="M259.851,7438.536c1.96-.442,5.174.772,7.275,1.1s4.854.337,6.778.788c2.819.661,3.08,4.989-1.2,5A57.333,57.333,0,0,1,260,7443.3C257.548,7442.394,257.509,7439.065,259.851,7438.536Z" fill="#6fb71e"/>
      <path id="Trazado_489" data-name="Trazado 489" d="M217.3,7314.644a2.556,2.556,0,0,1,3,3.64c-1.729,2.193-3.284,4.515-4.81,6.851-.957,1.464-2.261,4.943-3.959,5.194-2.627.389-3.459-1.35-2.723-3.682.485-1.534,6.266-10.418,7.471-11.441A2.371,2.371,0,0,1,217.3,7314.644Z" fill="#6fb71e"/>
      <path id="Trazado_490" data-name="Trazado 490" d="M259.228,7286.917c3.495-.534,4.919,2.085,2.581,4.47-3.168,1.046-6.363,2.006-9.517,3.093-1.774.612-4.77,2.866-6.183.364-1.894-3.354,3.135-4.6,5.474-5.487A51.127,51.127,0,0,1,259.228,7286.917Z" fill="#6fb71e"/>
      <path id="Trazado_491" data-name="Trazado 491" d="M235.9,7297.319c2.674-.721,4.741,1.89,2.77,4.032l-10.973,8.571a2.51,2.51,0,0,1-3.081-3.712c.553-.963,4.426-3.984,5.547-4.855C231.191,7300.558,234.982,7297.567,235.9,7297.319Z" fill="#6fb71e"/>
      <path id="Trazado_492" data-name="Trazado 492" d="M340.872,7314.321c2.152-.446,3.752,2.569,4.882,4.131,1.03,1.424,5.317,7.857,5.277,9.178a2.6,2.6,0,0,1-3.286,2.4c-1.419-.266-2.808-3.65-3.63-4.891-.884-1.333-5.166-7.078-5.312-7.955A2.841,2.841,0,0,1,340.872,7314.321Z" fill="#6fb71e"/>
      <path id="Trazado_493" data-name="Trazado 493" d="M205.006,7337.34c5.574-1.231,2.01,6.663,1.438,9.014-.4,1.649-1.108,7.152-2.176,7.908a2.66,2.66,0,0,1-4.093-1.215c-.409-1.4,1.765-9.645,2.389-11.52C203,7340.212,203.5,7337.672,205.006,7337.34Z" fill="#6fb71e"/>
      <path id="Trazado_494" data-name="Trazado 494" d="M298.93,7438.258a2.552,2.552,0,0,1,.911,4.96,43.218,43.218,0,0,1-6.734,1.462c-2.554.409-11.238,2.3-8.969-2.982.8-1.855,4.429-1.4,6.183-1.7C292.627,7439.62,296.993,7438.267,298.93,7438.258Z" fill="#6fb71e"/>
      <path id="Trazado_495" data-name="Trazado 495" d="M346.731,7404.008a4.541,4.541,0,0,1-.674-1.4c-.188-1.228,2.467-5.891,3.151-7.428.746-1.676,1.557-4.836,2.394-6.117,1.357-2.077,4.97-1.164,4.734,1.573-.15,1.748-4.494,11.335-5.656,12.951A2.526,2.526,0,0,1,346.731,7404.008Z" fill="#6fb71e"/>
      <path id="Trazado_496" data-name="Trazado 496" d="M298.63,7286.594c.876-.085,3.394.81,4.425,1.109,2.212.641,7.216,2.156,9.012,3.282,1.846,1.157,1.956,4.028-.019,4.616-1.892.564-5.962-1.6-7.986-2.286-1.736-.583-6.732-1.5-7.483-2.917A2.574,2.574,0,0,1,298.63,7286.594Z" fill="#6fb71e"/>
      <path id="Trazado_497" data-name="Trazado 497" d="M200.779,7379.735c-.768-.839-1.222-5.281-1.36-6.68-.193-1.969-.7-7.347-.077-8.9a2.428,2.428,0,0,1,3.879-.889c1.491,1.275.772,3.609.928,5.374.189,2.131,1.44,9.316.643,10.737A2.611,2.611,0,0,1,200.779,7379.735Z" fill="#6fb71e"/>
      <path id="Trazado_498" data-name="Trazado 498" d="M354.921,7353.579l-3.837-14.264a2.567,2.567,0,0,1,4.93-.86c1.008,1.9,3.384,11.2,3.368,13.288C359.361,7354.4,356.833,7355.062,354.921,7353.579Z" fill="#6fb71e"/>
      <path id="Trazado_499" data-name="Trazado 499" d="M321.637,7428.13c2.988-.673,4.786,2.208,2.451,4.344-1.4,1.284-9.986,5.978-11.809,6.476-1.882.515-3.585-.47-3.5-2.525.1-2.354,3.512-2.943,5.276-3.894C315.489,7431.759,320.7,7428.34,321.637,7428.13Z" fill="#6fb71e"/>
      <path id="Trazado_500" data-name="Trazado 500" d="M236.207,7428.129a3.376,3.376,0,0,1,2.212.182c1.53.588,4.738,2.944,6.5,3.9,1.739.951,5.99,1.957,6.109,4.251.114,2.208-1.783,2.984-3.7,2.481-1.814-.475-10.112-5.059-11.625-6.341C234.163,7431.307,234.379,7428.672,236.207,7428.129Z" fill="#6fb71e"/>
      <path id="Trazado_501" data-name="Trazado 501" d="M205,7388.1c3.4-1.02,4.321,4.681,5.4,7.083.723,1.617,3.432,6.393,3.156,7.75a2.436,2.436,0,0,1-3.19,1.74c-1.649-.375-3.661-5.333-4.379-6.968C205.1,7395.693,201.633,7389.1,205,7388.1Z" fill="#6fb71e"/>
      <path id="Trazado_502" data-name="Trazado 502" d="M341.194,7410.465a2.76,2.76,0,0,1,2.9,2.593c-.042,1.227-2.677,4.165-3.607,5.239-.992,1.143-5.3,5.747-6.292,6.317a2.5,2.5,0,0,1-3.6-3.288c.6-1.141,3.468-3.41,4.534-4.606C336.43,7415.261,339.551,7410.742,341.194,7410.465Z" fill="#6fb71e"/>
      <path id="Trazado_503" data-name="Trazado 503" d="M217.3,7410.794a3.967,3.967,0,0,1,1.754,0c1.091.247,4.374,4.754,5.423,5.927s3.995,3.516,4.591,4.549a2.511,2.511,0,0,1-3.456,3.459c-.386-.222-2.42-2.044-2.877-2.483-1.442-1.384-5.716-6.05-6.556-7.627C215.435,7413.228,215.5,7411.2,217.3,7410.794Z" fill="#6fb71e"/>
      <path id="Trazado_504" data-name="Trazado 504" d="M306.825,7362.558c4.324-.942,3.257,4.784,2.873,7.3-.314,2.061-1.879,8.631-3.813,9.424a2.563,2.563,0,0,1-3.7-2.415c.055-.852,1.767-4.339,2.111-5.791.3-1.281.531-2.7.72-4.009C305.246,7365.466,304.468,7363.072,306.825,7362.558Z" fill="#6fb71e"/>
      <path id="Trazado_505" data-name="Trazado 505" d="M253.853,7363.228c1.141,1.041.553,2.563.734,3.835.195,1.373.449,2.923.781,4.263.344,1.383,1.983,4.678,2.042,5.531.2,2.83-3.473,3.859-5.1.991-1.507-2.662-3.244-10.34-2.755-13.285A2.613,2.613,0,0,1,253.853,7363.228Z" fill="#6fb71e"/>
      <path id="Trazado_506" data-name="Trazado 506" d="M262.072,7340.8c1.783-.3,3.576,1.991,2.675,3.649-1.46,1.8-3.354,3.146-4.8,4.973-1.236,1.563-3.089,5.951-4.921,6.139-2.689.277-3.079-2.367-2.193-4.427C253.837,7348.805,259.692,7341.2,262.072,7340.8Z" fill="#6fb71e"/>
      <path id="Trazado_507" data-name="Trazado 507" d="M276.9,7334.851c2.468-.221,7.581-.2,9.84.688,1.892.747,2.294,3.575.427,4.533-1.689.868-3.79-.164-5.621-.284a31.065,31.065,0,0,0-3.79.017c-1.938.135-6.107,1.856-6.727-1.183C270.38,7335.436,274.7,7335.047,276.9,7334.851Z" fill="#6fb71e"/>
      <path id="Trazado_508" data-name="Trazado 508" d="M261.747,7384.31c1.989-.441,4.925,2.406,6.909,3.36,1.687.811,6.849,1.913,7.295,3.419a2.527,2.527,0,0,1-2.837,3.492c-2.647-.26-12.6-4.669-13.125-7.415A2.748,2.748,0,0,1,261.747,7384.31Z" fill="#6fb71e"/>
      <path id="Trazado_509" data-name="Trazado 509" d="M296.421,7384.308c2.092-.467,3.9,1.264,3,3.326-1.054,2.422-10.923,7.168-13.458,7a2.655,2.655,0,0,1-2.379-3.284c.343-1.837,5.585-2.829,7.361-3.682C292.419,7386.962,295.355,7384.547,296.421,7384.308Z" fill="#6fb71e"/>
      <path id="Trazado_510" data-name="Trazado 510" d="M296.425,7340.8c2.445-.5,6.667,4.751,8.034,6.654,1.186,1.651,4.633,6.317,1.5,7.627-3.274,1.369-4.59-3.47-6.305-5.659-.518-.662-1.463-1.786-2.029-2.384-1.42-1.5-3.773-2.015-2.941-4.809A3,3,0,0,1,296.425,7340.8Z" fill="#6fb71e"/>
    </g>
  </g>
</svg>