<svg xmlns="http://www.w3.org/2000/svg" width="150.594" height="96.043" viewBox="0 0 150.594 96.043">
  <g id="Grupo_239" data-name="Grupo 239" transform="translate(-571.767 -2676.419)">
    <text id="_4" data-name="4" transform="translate(722.36 2720.419)" fill="#464241" font-size="40.679" font-family="SegoeUI, Segoe UI"><tspan x="-21.929" y="0">4</tspan></text>
    <g id="Grupo_158" data-name="Grupo 158">
      <path id="Trazado_232" data-name="Trazado 232" d="M600.71,2709.384c4.331,2.434,9.12,1.9,13.881,2.094,1.539.064,7.153.751,8.169.375.855-.317,2.144-1.409,3.316-1.874,8.032-3.182,19.544,1.242,27.961.981.886-.028,5.09-.9,5.281-1.716a4.11,4.11,0,0,1,2.114-4.4,70.938,70.938,0,0,1,9.865-3.891c2.926-.555,4.1.689,5.248,3.081,4.367,9.058,7.217,19.55,11.51,28.724a4.5,4.5,0,0,1-1.858,5.157,74.1,74.1,0,0,1-9.813,3.942c-2.222.587-3.2-.307-4.907-1.548l-5.064,3.778a7.353,7.353,0,0,1-8.1,10.324c-.8,3.525-4.362,6.53-8.03,5.6a7.134,7.134,0,0,1-8.583,6.342c-1.107,4.068-4.844,6.741-9.075,5.475-1.99-.6-3.314-2.247-5.06-3.265l-.39.135c-2.739,4.706-9.174,5.245-11.867.2-.24-.45-.393-1.594-.652-1.816-.361-.31-1.7-.249-2.277-.447a6.866,6.866,0,0,1-4.4-4.687c-3.812.213-7.016-2.131-7.323-6.043-4.155-.52-6.807-3.648-6.122-7.9.106-.658,1.132-2.443.947-2.759l-7.155-4.666c-1.19.858-2.21,1.662-3.817,1.51a91.2,91.2,0,0,1-10.283-4.013,4.307,4.307,0,0,1-2.2-5.314c4.213-9.174,7.126-19.481,11.423-28.549,1.116-2.358,2.168-3.779,5.12-3.32a70.134,70.134,0,0,1,9.711,3.785C600.094,2705.653,601.272,2707.286,600.71,2709.384Zm-4.179-1-9.06-3.4-11.385,28.746.214.72,8.83,3.5Zm76.074-3.4-9.059,3.4-.043.362,11.575,29.21c2.432-1.316,6.054-1.991,8.356-3.323.3-.172.611-.259.595-.694Zm-11.681,8.3a19.556,19.556,0,0,1-7.135,1.843c-7.6,0-20.688-4.191-27.3-.849-2.719,1.375-11.952,8.984-14.363,11.334-2.594,2.531-.961,5.426,2.415,5.009,3.5-1.593,6.994-4.938,10.391-6.479,3.884-1.762,6.416,1.947,9.6,3.724a23.737,23.737,0,0,0,9.652,3.066c2.4.138,4.09-.732,6.457.293l12.27,9.285a.889.889,0,0,0,.873.184c.364-.1,6.1-4.053,6.143-4.429Zm-43.347,2.6c-6.191-.6-12.731.352-18.425-2.6l-9.054,23.58,8.161,5.243.33-.048c2.279-5.085,9.852-6.776,12.548-1.177.293.61.633,2.323.792,2.454.244.2,1.929.442,2.535.707a7.184,7.184,0,0,1,3.618,4.433,6.592,6.592,0,0,1,7.319,5.527c6.14.069,8.736,6.7,4.9,11.307,1.122.721,2.725,2.583,4.044,2.737a2.9,2.9,0,0,0,3.1-3.634c-.528-1.963-4.734-2.869-3.918-5.456,1.367-4.335,7.211,3.094,9.12,3.377a2.884,2.884,0,0,0,2.714-4.727c-1.251-1.547-8.616-5.57-5.452-7.847a2.208,2.208,0,0,1,2.265-.2c2.178,1.2,6.3,5.858,8.425,6.379a2.842,2.842,0,0,0,3.064-4.372c-1.545-2.387-11.421-6.839-5.058-9.184,1.31.029,6.8,5.342,8.308,6.453,1.629,1.2,2.766,2.237,4.782.9a3.02,3.02,0,0,0,.442-4.7l-13.159-10.07c-1.593-.281-3.087.193-4.789.113-6.269-.294-12.134-3.408-16.939-7.22-5.37,1.882-11.6,10.048-17.7,5.779a7.075,7.075,0,0,1-.8-10.635ZM605.29,2741.4a3.632,3.632,0,0,0-1.455.587,64.432,64.432,0,0,0-4.907,5.993,2.364,2.364,0,0,0,1.908,3.741c1.943.007,4.86-5.312,6.468-6.524A2.458,2.458,0,0,0,605.29,2741.4Zm5.995,6.2a3.381,3.381,0,0,0-1.342.751c-.5.447-4.716,5.6-4.887,6.013a2.322,2.322,0,0,0,3.316,3.057c1.194-1.648,5.464-5.577,5.588-7.408A2.3,2.3,0,0,0,611.285,2747.6Zm7.268,4.932a3.387,3.387,0,0,0-1.342.751c-.459.409-4.74,5.655-4.887,6.014-.7,1.709.324,3.7,2.208,3.514,1.829-.18,5.128-5.554,6.538-6.965A2.4,2.4,0,0,0,618.553,2752.537Zm6.479,5.715a2.982,2.982,0,0,0-1.359.979,57.073,57.073,0,0,0-4.593,5.788c-.99,2.6,1.581,4.358,3.566,2.789.445-.353,4.95-5.888,5.118-6.3A2.27,2.27,0,0,0,625.032,2758.252Z" fill="#6fb71e"/>
    </g>
  </g>
</svg>