<svg xmlns="http://www.w3.org/2000/svg" width="150.517" height="116.231" viewBox="0 0 150.517 116.231">
  <g id="Grupo_237" data-name="Grupo 237" transform="translate(-571.843 -2443.423)">
    <text id="_2" data-name="2" transform="translate(722.36 2487.423)" fill="#464241" font-size="40.679" font-family="SegoeUI, Segoe UI"><tspan x="-21.929" y="0">2</tspan></text>
    <g id="Grupo_156" data-name="Grupo 156">
      <g id="Grupo_155" data-name="Grupo 155">
        <path id="Trazado_208" data-name="Trazado 208" d="M626.319,2470.9a37.447,37.447,0,0,1,7.544.049,6.748,6.748,0,0,1,4.407,3.521c.242.5.25,1.379.562,1.7.1.1,2.316,1.1,2.5,1.149.867.215,1.9-.817,2.885-.985,4.011-.683,7.356,2.7,9.688,5.606a6.605,6.605,0,0,1,1.47,5.1c-.118,1.072-1.116,2.367-1.116,2.943,0,.147,1.035,2.564,1.134,2.7.3.42,1.48.545,2.093.852a7.217,7.217,0,0,1,2.686,2.75c.959,1.942.972,8.607.072,10.573a6.853,6.853,0,0,1-4.759,3.621l-1.205,2.662c.615,1.787,1.272,2.69,1.1,4.713-.222,2.666-3.622,6.052-5.669,7.694a6.606,6.606,0,0,1-5.1,1.47c-1.073-.118-2.368-1.116-2.944-1.116-.146,0-2.564,1.035-2.7,1.134-.419.305-.545,1.48-.852,2.093a7.216,7.216,0,0,1-2.75,2.686c-1.941.958-8.607.972-10.572.072a6.854,6.854,0,0,1-3.622-4.759l-2.662-1.2c-1.787.615-2.689,1.272-4.713,1.1-2.665-.222-6.051-3.622-7.694-5.669a6.608,6.608,0,0,1-1.47-5.1c.119-1.073,1.116-2.368,1.116-2.944,0-.147-1.034-2.564-1.133-2.7-.3-.42-1.481-.545-2.093-.852a7.226,7.226,0,0,1-2.687-2.75c-.852-1.727-.893-7.266-.536-9.225a6.794,6.794,0,0,1,3.368-4.333c.532-.254,1.413-.318,1.732-.533a15.5,15.5,0,0,0,1.308-2.977c.018-.561-.883-1.7-1.021-2.506-.682-4.011,2.7-7.355,5.607-9.689a6.6,6.6,0,0,1,5.1-1.47c1.072.118,2.367,1.116,2.943,1.116a11,11,0,0,0,3.009-1.505c.2-.414.2-1.033.462-1.576A6.843,6.843,0,0,1,626.319,2470.9Zm8.136,4.326a3.638,3.638,0,0,0-1.407-.745,38.716,38.716,0,0,0-6.283.036c-2.35.52-1.55,3.171-2.552,4.245a5.306,5.306,0,0,1-1.463.8,39.229,39.229,0,0,1-4.413,1.712c-2.062.191-3.048-2.44-5.313-1.019a47.2,47.2,0,0,0-4.665,4.847c-.731,2.332,1.456,2.837,1.267,4.884a54.936,54.936,0,0,1-2.306,5.631c-1.094,1.352-4.049.33-4.488,2.988a36.45,36.45,0,0,0,.092,6.452c.637,2.22,3.274,1.369,4.3,2.5.629,1.764,2.837,5.281,2.289,7.023-.39,1.24-2.2,2-.908,4.054a47.3,47.3,0,0,0,4.847,4.665c2.333.731,2.837-1.457,4.884-1.267a54.96,54.96,0,0,1,5.631,2.305c1.352,1.094.33,4.049,2.988,4.489a24.935,24.935,0,0,0,6.724-.281c2-.76,1.078-3.068,2.223-4.113,1.764-.628,5.281-2.837,7.024-2.289,1.24.39,2,2.2,4.053.908a47.081,47.081,0,0,0,4.665-4.847c.731-2.332-1.457-2.837-1.267-4.884a53.086,53.086,0,0,1,2.225-5.485c1.2-1.688,4.118-.228,4.561-3.368a22.793,22.793,0,0,0-.272-6.49c-.761-2-3.069-1.078-4.114-2.223-.628-1.764-2.837-5.281-2.289-7.023.39-1.24,2.2-2,.908-4.054A47.3,47.3,0,0,0,646.55,2480c-2.332-.731-2.837,1.457-4.884,1.267a54.834,54.834,0,0,1-5.631-2.3C634.88,2478.031,635.482,2476.3,634.455,2475.223Z" fill="#6fb71e"/>
        <path id="Trazado_209" data-name="Trazado 209" d="M592.795,2457.082a4.384,4.384,0,0,1,1.705,0c2.7.4,6,2.009,8.756,2.567,1.09.621,1.776,3.981,2.169,5.306a38.436,38.436,0,0,1,1.421,5.154,1.888,1.888,0,0,1-.227,1.021l-6.734,6.858c-.983.9-2.11.313-3.229.04a62.578,62.578,0,0,1-7.554-2.186,2.34,2.34,0,0,1-1.3-1.417,62.664,62.664,0,0,1-2.367-8.278,2.779,2.779,0,0,1,.846-2.9C586.985,2462.393,592.149,2457.25,592.795,2457.082Zm8.161,5.658-6.844-1.87-4.845,4.7,1.824,7.035,6.865,2.012,4.886-4.79Z" fill="#6fb71e"/>
        <path id="Trazado_210" data-name="Trazado 210" d="M660.518,2457.524c.679-.09,7.547,1.94,8.668,2.335,1.075.379,1.729.412,2.279,1.572a56.121,56.121,0,0,1,2.189,7.551c.341,1.383.812,1.914-.065,3.205a64.868,64.868,0,0,1-6.207,6.25c-1.346,1.015-1.757.612-3.226.269-1.286-.3-7.822-2.072-8.453-2.646s-2.457-7.27-2.759-8.565c-.281-1.206-.709-1.83.06-2.985a65.525,65.525,0,0,1,6.212-6.244A3.64,3.64,0,0,1,660.518,2457.524Zm7.714,5.894-7.089-1.884-4.606,4.716,1.827,7.036,7.036,1.827,4.716-4.606Z" fill="#6fb71e"/>
        <path id="Trazado_211" data-name="Trazado 211" d="M661.2,2524.8c2.862.77,5.871,1.346,8.667,2.331,1.028.362,1.777.434,2.282,1.569a62.749,62.749,0,0,1,2.373,8.272,2.77,2.77,0,0,1-.583,2.835,52.961,52.961,0,0,1-5.537,5.562,2.779,2.779,0,0,1-2.9.845c-2.691-.425-5.972-2.079-8.757-2.567-1.122-.6-1.779-3.98-2.168-5.306a41.739,41.739,0,0,1-1.42-5.154,1.877,1.877,0,0,1,.226-1.021l6.733-6.858Zm7.712,5.893-7.088-1.887-4.791,4.887,2.015,6.863,7.033,1.825,4.7-4.844Z" fill="#6fb71e"/>
        <path id="Trazado_212" data-name="Trazado 212" d="M594.1,2524.18c1.07-.022,6.885,1.805,8.269,2.273,2.1.71,2.043.528,2.779,2.657a56.856,56.856,0,0,1,2.282,8.143,2.241,2.241,0,0,1-.637,1.776,59.663,59.663,0,0,1-6,6,4.065,4.065,0,0,1-1.3.742l-9.534-2.6a2.278,2.278,0,0,1-1.47-1.474,62.2,62.2,0,0,1-2.561-9.014,2.224,2.224,0,0,1,.7-1.819,62.688,62.688,0,0,1,6.119-6.112A2.714,2.714,0,0,1,594.1,2524.18Zm7.542,5.832-7.036-1.824-4.845,4.828,2.013,6.863,7.089,1.883,4.607-4.715Z" fill="#6fb71e"/>
        <path id="Trazado_213" data-name="Trazado 213" d="M629.49,2537.938a2.195,2.195,0,0,1,1.358.127,75.034,75.034,0,0,1,8.294,4.616,1.7,1.7,0,0,1,.831,1.433,63.069,63.069,0,0,1,.006,9.077c-.164,1.808-2.645,2.669-4.162,3.539-.916.525-5.045,2.894-5.707,2.922a2.33,2.33,0,0,1-1.106-.267,68.745,68.745,0,0,1-8.142-4.54,1.7,1.7,0,0,1-.832-1.434,63.047,63.047,0,0,1-.006-9.076,1.773,1.773,0,0,1,.838-1.654Zm6.817,7.237-6.233-3.4-6.274,3.339-.1,7.236,6.233,3.4,6.275-3.339Z" fill="#6fb71e"/>
        <path id="Trazado_214" data-name="Trazado 214" d="M581.47,2490.824a2.181,2.181,0,0,1,1.358.127,75.016,75.016,0,0,1,8.293,4.616,1.7,1.7,0,0,1,.832,1.433,63.056,63.056,0,0,1,.006,9.076c-.165,1.809-2.645,2.669-4.163,3.539-.916.526-5.045,2.9-5.707,2.922a2.325,2.325,0,0,1-1.1-.266,68.979,68.979,0,0,1-8.143-4.54,1.7,1.7,0,0,1-.831-1.434,63.05,63.05,0,0,1-.006-9.076,1.772,1.772,0,0,1,.837-1.654Zm6.816,7.236-6.232-3.4L575.779,2498l-.1,7.236,6.233,3.4,6.274-3.339Z" fill="#6fb71e"/>
        <path id="Trazado_215" data-name="Trazado 215" d="M629.49,2443.709a2.195,2.195,0,0,1,1.358.127,75.034,75.034,0,0,1,8.294,4.616,1.7,1.7,0,0,1,.831,1.434,63.056,63.056,0,0,1,.006,9.076,2.256,2.256,0,0,1-.263,1.1c-.28.493-5.029,3.093-5.938,3.576-1.5.8-3.15,2.172-4.774,1.523a68.969,68.969,0,0,1-8.142-4.541,1.7,1.7,0,0,1-.832-1.433,63.064,63.064,0,0,1-.006-9.077,1.773,1.773,0,0,1,.838-1.654Zm6.817,7.237-6.233-3.4-6.274,3.339-.1,7.236,6.232,3.4,6.275-3.339Z" fill="#6fb71e"/>
        <path id="Trazado_216" data-name="Trazado 216" d="M677.511,2490.824a2.181,2.181,0,0,1,1.358.127,75.016,75.016,0,0,1,8.293,4.616,1.7,1.7,0,0,1,.832,1.433,63.056,63.056,0,0,1,.006,9.076,2.261,2.261,0,0,1-.263,1.1c-.28.493-5.03,3.093-5.938,3.576-1.5.8-3.151,2.173-4.774,1.523a68.974,68.974,0,0,1-8.143-4.54,1.7,1.7,0,0,1-.831-1.434,63.05,63.05,0,0,1-.006-9.076,1.772,1.772,0,0,1,.837-1.654Zm6.816,7.236-6.232-3.4L671.82,2498l-.1,7.236,6.233,3.4,6.274-3.339Z" fill="#6fb71e"/>
        <path id="Trazado_217" data-name="Trazado 217" d="M612.714,2542.945c1.088,1.189-.053,2.472.073,2.644,1.652.4,4.7,1.139,3.371,3.488-1.18,2.088-4.851-.623-5.181-.315a1.9,1.9,0,0,1-2.718,1.7c-.994-.452-2.4-4.946-1.923-6,.349-.774,4.588-2.156,5.412-2.037A2.385,2.385,0,0,1,612.714,2542.945Z" fill="#6fb71e"/>
        <path id="Trazado_218" data-name="Trazado 218" d="M653.27,2459.228a24.006,24.006,0,0,1-4.465,1.558c-2.048.223-2.254-1.493-1.907-3.088-1.54-.626-4.151-.987-3.134-3.334s4.948.465,5.262.171a1.866,1.866,0,0,1,3.576-.743,18.83,18.83,0,0,1,1.139,4.421A3.677,3.677,0,0,1,653.27,2459.228Z" fill="#6fb71e"/>
        <path id="Trazado_219" data-name="Trazado 219" d="M676.213,2480.809c1.606-.961,3.446-.075,3.124,1.867-.138.836-1.635,4.346-2.436,4.6-.856.272-4.681-1.11-5.341-1.7a1.843,1.843,0,0,1,1.479-3.18c-1.041-1.408-1.944-4.275.589-4.526C675.227,2477.708,675.768,2479.616,676.213,2480.809Z" fill="#6fb71e"/>
        <path id="Trazado_220" data-name="Trazado 220" d="M588.484,2518.021c.967,1.178.07,2.831-1.288,3.233,2.819,4.526-2.677,6.06-3.4,1.007-.441-.052-.6.359-1.024.447a1.786,1.786,0,0,1-2.27-2.264,29.151,29.151,0,0,1,1.744-3.7,1.724,1.724,0,0,1,1.443-.843A19.146,19.146,0,0,1,588.484,2518.021Z" fill="#6fb71e"/>
        <path id="Trazado_221" data-name="Trazado 221" d="M648.051,2543.4a2.009,2.009,0,0,1,.526,1.514c.3.33,2.5-1.981,3.977-.466,1.67,1.715-.678,3.483-2.393,3.639.942,1.961.075,3.568-2.224,3.013-1.143-.276-4.186-1.467-4.34-2.7a15.525,15.525,0,0,1,1.877-5.005A1.964,1.964,0,0,1,648.051,2543.4Z" fill="#6fb71e"/>
        <path id="Trazado_222" data-name="Trazado 222" d="M611.944,2459.907a3.065,3.065,0,0,1-.519-1.523c-4.48,2.869-6.731-2.028-1.583-3.173-.774-1.22-.367-3.1,1.248-3.19a24.407,24.407,0,0,1,4.5,1.637,1.818,1.818,0,0,1,.774,2.066,41.95,41.95,0,0,1-1.657,4.013A2.024,2.024,0,0,1,611.944,2459.907Z" fill="#6fb71e"/>
        <path id="Trazado_223" data-name="Trazado 223" d="M585.834,2484.887c-.033,1.655-1.327,3.2-3.035,2.238s-.125-3.317-.373-3.587a1.763,1.763,0,0,1-1.362-2.628c.449-.776,4.22-2.442,5.111-2.386,1.237.078,2.517,3.1,2.839,4.2.261.893.389,1.438-.337,2.176C587.311,2486.288,586.076,2484.666,585.834,2484.887Z" fill="#6fb71e"/>
        <path id="Trazado_224" data-name="Trazado 224" d="M677.343,2519.767c2.319.382,2.7,2.43.538,3.6-1.116.6-3.726,1.758-4.83,1.033-.612-.4-2.1-4.192-2.065-4.966a1.9,1.9,0,0,1,3.183-1.25C674.976,2513.94,679.752,2516.181,677.343,2519.767Z" fill="#6fb71e"/>
        <path id="Trazado_225" data-name="Trazado 225" d="M634.542,2483.292c.031.033.65.036.9.114,18.111,5.694,17.994,30.813.115,36.367a9.749,9.749,0,0,0-.8-3.626c14.958-4.552,13.744-26.64-1.766-29.607-1.16-.223-2.534-.129-3.508-.342a1.854,1.854,0,0,1-.949-2.892c.481-.689,3.627-2.6,4.5-2.491C634.9,2481.053,634.38,2483.119,634.542,2483.292Z" fill="#6fb71e"/>
        <path id="Trazado_226" data-name="Trazado 226" d="M624.564,2483.528a6.906,6.906,0,0,0,.681,3.622,14.09,14.09,0,0,0-7.663,5.363,15.447,15.447,0,0,0,9.429,24.245c1.755.335,4.921-.237,4.818,2.214-.049,1.185-3.448,3.487-4.436,3.532-2.31.1-1.733-2.287-1.931-2.5-.031-.033-.65-.036-.9-.114C606.414,2514.184,606.569,2488.911,624.564,2483.528Z" fill="#6fb71e"/>
        <path id="Trazado_227" data-name="Trazado 227" d="M628.588,2491.741c13.44-1.841,15.533,18.655,2.406,19.846C617.958,2512.77,616.08,2493.453,628.588,2491.741Zm.453,3.625c-8.792,1.254-5.822,15.135,2.993,12.279C639.2,2505.325,636.738,2494.268,629.041,2495.366Z" fill="#6fb71e"/>
      </g>
    </g>
  </g>
</svg>
