<svg xmlns="http://www.w3.org/2000/svg" width="49.701" height="44.854" viewBox="0 0 49.701 44.854">
  <path id="Trazado_173" data-name="Trazado 173" d="M486.062,493.133c.092.076.483.147.7.3a2.573,2.573,0,0,1,.9,3.013,2.469,2.469,0,0,1,1.314,3.732c-.128.192-.685.663-.693.757-.006.071.245.516.278.751a2.4,2.4,0,0,1-1.677,2.8,2.591,2.591,0,0,1-1.972,3.473l-15.328.007a4.609,4.609,0,0,1-3.462-2.2l-13.893-.028a2.691,2.691,0,0,1-3.712-.411,2.482,2.482,0,0,1-4.168-1.7,52.267,52.267,0,0,1-4.538-6.187c2.547-4.194,4.754-8.994,7.46-13.062a4.728,4.728,0,0,1,2.606-2.154c.491-.15.937-.14,1.407-.286,2.052-3.957,4.678-7.736,6.734-11.672.656-1.258.742-2.614,2.521-2.823a2.486,2.486,0,0,1,3.586-2.756c.8-1.524,2.528-1.574,3.855-.644a2.456,2.456,0,0,1,3.654-.237l7.93,13.65a4.566,4.566,0,0,1,.173,3c-.089.351-.409.876-.327,1.166Zm-1.933-.079-.057-.312-6.345-11c-.218-.58.313-.991.485-1.531a3.057,3.057,0,0,0-.128-2.212l-7.492-13.029A.92.92,0,0,0,469,465.7l2.807,5.033a.764.764,0,0,1-1.414.566l-3.561-6.066a.908.908,0,0,0-1.419,1.1l3.554,6.268a.8.8,0,0,1-1.391.56l-3.866-6.712a.9.9,0,0,0-1.645.69l3.98,7.141a.787.787,0,0,1-1.386.528l-3.341-5.65c-.758-.375-1.579.092-1.394.968l5.566,9.784a.773.773,0,0,1-.774.884c-1.2.043-3.2-.573-4.551-.645-.825-.043-2.324-.036-2.375,1.052a27.485,27.485,0,0,1,4.97,2.065c2.117,1.179,3.259,3,5.87,3.227.476.042,1.01-.056,1.472.009.923.129,1.32,1.9,1.926,2.526.471.136,4.069-2.993,4.654-3.47.484-.334,1.214.157,1.577.509a3.127,3.127,0,0,1,.347,3.741c-.57,1.17-1.682,2.067-2.2,3.245Zm-20.944-14.07-4.178-7.3-6.716,11.585c-.455.515-.668.226-1.083.292a3.363,3.363,0,0,0-2.456,1.352c-2.147,3.941-4.582,7.732-6.742,11.664a6.9,6.9,0,0,0-.72,1.4.9.9,0,0,0,1.477.834l2.855-4.866c.739-.646,1.681-.071,1.3.874l-3.49,6.03a.913.913,0,0,0,1.6.845l3.512-6.1a.8.8,0,0,1,1.23,1.019l-3.8,6.565a.9.9,0,0,0,1.5.972c1.364-2.024,2.389-4.514,3.761-6.5.664-.962,1.559-.748,1.543.374-.78,1.8-2.272,3.563-3.04,5.323-.454,1.039.474,1.836,1.385,1.174,1.935-2.9,3.4-6.293,5.318-9.174.458-.69.826-1.1,1.552-.324.529,1.384,1.024,2.915,1.688,4.235.372.739,1.05,1.924,2.018,1.61a37.262,37.262,0,0,1-.623-6.6,21.581,21.581,0,0,0,.421-3.49,12.162,12.162,0,0,0-1.38-3.7l1.373-2.634c-.092-.394-4.382-1.825-5-2.088-.642-.5-.188-2,.253-2.574.773-1.006,1.82-1.1,3-1.209Zm-.529,15.023h2.486a8.859,8.859,0,0,1,4-3.617,8.062,8.062,0,0,0,1.553-.561l-1.056-1.694a8.7,8.7,0,0,1-5.007-1.551c-.277-.209-1.454-1.412-1.7-1.355l-1.118,1.849A8.451,8.451,0,0,1,462.656,494.007Zm3.226,1.586c-.852.182-2.3-.134-3.226,0a14.048,14.048,0,0,0,.119,2.05c.091.787.743,3.487.575,3.987-.183.541-1.388.843-1.911.845-2.676.009-3.221-3.091-4.175-4.928-.051-.1-.062-.252-.213-.261l-3.916,6.876h13.593c.325,0,.933,1.168,1.273,1.478a3.107,3.107,0,0,0,1.487.734l15.413-.013c.912-.625.637-1.672-.5-1.782-1.671-.16-3.594.133-5.293,0a.748.748,0,0,1,.1-1.479c2.123-.229,4.918.314,6.958-.025,1.189-.2,1.176-1.651.136-1.778-2.127-.259-4.872.291-6.979,0a.791.791,0,0,1-.01-1.582c2.364-.276,5.394.321,7.718-.005a.905.905,0,0,0,.107-1.786c-2.471-.223-5.411.279-7.825,0a.791.791,0,0,1,.009-1.582l6.4-.055a.909.909,0,0,0-.106-1.7l-11.33-.094a.662.662,0,0,1-.424-.644c-.022-.537,1.147-1.675,1.53-2.177.862-1.13,2.739-3.026,1.806-4.432a32.416,32.416,0,0,1-5.528,3.884c-1.712.8-2.841.794-4.2,2.356C467.1,493.9,466.23,495.519,465.882,495.593Z" transform="translate(-439.709 -463.114)" fill="#464241"/>
</svg>
