<svg xmlns="http://www.w3.org/2000/svg" width="36.598" height="52.997" viewBox="0 0 36.598 52.997">
  <g id="Grupo_151" data-name="Grupo 151" transform="translate(-623.741 -479.381)">
    <g id="Grupo_150" data-name="Grupo 150">
      <path id="Trazado_174" data-name="Trazado 174" d="M643.111,504.043a1.012,1.012,0,0,1-.745-.838c.046-.889-.1-1.908-.005-2.782a1,1,0,0,1,1.243-.91l.622-2.635a1.132,1.132,0,0,1,.782-.587l0-16.113a.933.933,0,0,1,1.756-.283l2.437,6.21v10.188a1.012,1.012,0,0,1,.782.585,19.511,19.511,0,0,1,.6,2.453.678.678,0,0,1,.017.185,1.032,1.032,0,0,1,1.25.866,20.123,20.123,0,0,1,0,2.724,1,1,0,0,1-.491.834c-.03.016-.251.1-.265.1h-1.012V505.7h1.84a3.089,3.089,0,0,1,.48-.717c2.225-2.588,5.39-1.876,6.96.95,1.464,2.635,1.319,6.811-.707,9.131a3.965,3.965,0,0,1-6.575-.5c-.464.03-.934-.026-1.393-.031-.074,0-.144.033-.219.034-.124,0-.3-.071-.386.016v2.5a2.29,2.29,0,0,1-.1.228.964.964,0,0,1-.6.477c-.034.545.051,1.152,0,1.689a.948.948,0,0,1-.49.723c-.032.017-.251.1-.265.1h-.571a7.547,7.547,0,0,1-.545,3.594,5.493,5.493,0,0,1-4.918,3.105c-1.494.067-3.1,0-4.6,0-1.671,0-3.46.075-5.116,0a5.485,5.485,0,0,1-5.428-5.244c0-4.02,0-8.059,0-12.068,0-2.754.019-5.51-.016-8.263a3.631,3.631,0,0,0-1.787,3v22.634a3.605,3.605,0,0,0,3.259,3.439H647.2a.945.945,0,0,1,.037,1.876H628.759a5.377,5.377,0,0,1-4.953-5.461c-.146-3.678,0-7.406,0-11.084,0-3.659-.091-7.334,0-10.995a8.209,8.209,0,0,1,.058-1.312,5.526,5.526,0,0,1,3.584-4.162l0-5.424a5.439,5.439,0,0,1,9.055-3.9c1.71,1.5,1.918,3.537,1.8,5.706a5.494,5.494,0,0,1-3.362,4.808c-1.705.707-3.772.279-5.582.4l0,7.049c.034,4.436-.064,8.889,0,13.322a3.514,3.514,0,0,0,.681,2.369c1.276,1.708,3.026,1.392,4.891,1.4,2.7.01,5.394,0,8.092,0a3.576,3.576,0,0,0,3.105-3,14.8,14.8,0,0,0,.046-1.775h-.607a3.444,3.444,0,0,1-.411-.2c-.573-.429-.266-1.682-.342-2.317-.262-.09-.7-.447-.7-.743v-2.484H642.1a2.58,2.58,0,0,1-.423.59,3.871,3.871,0,0,1-5.63.4c-2.952-2.573-2.908-8.979.263-11.364,2.178-1.637,4.719-.645,6.029,1.5h1.785v-1.656C643.816,504.007,643.4,504.092,643.111,504.043Zm4.25-7.728v-9.807l-.478-1.122L646.866,491l.016,5.317Zm-18.032,2.76h3.92a3.728,3.728,0,0,0,2.7-1.755,6.076,6.076,0,0,0-.132-5.227,3.549,3.549,0,0,0-6.449,1.589c-.117,1.586.033,3.366,0,4.971C629.365,498.789,629.341,498.939,629.329,499.075Zm19.357.442-.33-1.308H645.85l-.292,1.309Zm1.288,1.876h-5.7v.773h5.7Zm-1.73,2.65H646v11.886h2.208Zm-6.679,8.611h2.558v-5.078h-2.558c-.455,0-1.063-1.3-1.458-1.67-1.385-1.286-2.811-.483-3.6.952-1.074,1.949-1.039,5.181.443,6.917,1.186,1.391,2.588,1.166,3.621-.24C640.877,513.116,640.934,512.729,641.565,512.654Zm8.519,0h2.558c.614,0,.88.749,1.214,1.141,1.232,1.446,2.649,1.083,3.655-.357a6.8,6.8,0,0,0,.732-5.244c-.647-2.533-2.886-4.3-4.737-1.521-.184.275-.287.637-.6.8-.031.016-.251.1-.265.1h-2.5l-.055.055Zm-2.576,5.152H646.7v.625h.809Z" fill="#FB081A"/>
    </g>
  </g>
</svg>