<svg xmlns="http://www.w3.org/2000/svg" width="49.908" height="49.96" viewBox="0 0 49.908 49.96">
  <g id="Grupo_145" data-name="Grupo 145" transform="translate(-83.432 -457.437)">
    <g id="Grupo_144" data-name="Grupo 144">
      <path id="Trazado_171" data-name="Trazado 171" d="M133.2,481.452a3.6,3.6,0,0,0-6.31-1.149c-.286.389-.387.824-.628,1.225l-7.217,0a12.355,12.355,0,0,0-.55-2.552l.081-.147a1.167,1.167,0,0,0,.352.073c1.521.019,5.277.225,6.523-.253,2.185-.838,1.558-3.424,1.638-5.262a2.685,2.685,0,0,0-1.38-5.171,2.772,2.772,0,0,0-1.805,1.26,2.712,2.712,0,0,0,1.408,3.911c-.116.9.154,2.184-.019,3.037a1.039,1.039,0,0,1-1.014.7c-1.909.171-4.171-.058-6.135-.006-.144,0-.272.067-.414.067a12.259,12.259,0,0,0-2.834-3.228c-.377-.3-.806-.512-1.167-.828l-.039-6.736c.1-.459.322-.831.82-.891.9-.108,1.992.086,2.912,0a2.7,2.7,0,0,0,3.2,1.692,2.669,2.669,0,0,0,.167-5.114,2.7,2.7,0,0,0-3.365,1.646c-1.625.119-3.694-.483-4.869.961a3.329,3.329,0,0,0-.571,1.21v6.343c-.055.068-.06.083-.148.08-.253-.008-1-.3-1.348-.366a10.69,10.69,0,1,0,.584,20.827c.269-.064.705-.329.912-.157v6.415c0,.033.206.521.247.607.97,2.054,3.353,1.391,5.193,1.492a2.687,2.687,0,0,0,5.173-1.381,2.827,2.827,0,0,0-1.348-1.859,2.733,2.733,0,0,0-3.825,1.464c-.92-.087-2.016.107-2.912,0a.877.877,0,0,1-.769-.728l-.047-6.791c.049-.264.874-.668,1.132-.863a12.621,12.621,0,0,0,2.9-3.3,3.361,3.361,0,0,0,.347.062c1.95,0,4.4-.183,6.278-.006a.976.976,0,0,1,.955.756c.136.883-.094,2.06.007,2.976a2.685,2.685,0,0,0,1.317,5.18c2.7-.3,3.016-4.311.46-5.18-.1-1.839.562-4.222-1.493-5.192-.086-.041-.574-.248-.607-.248h-6.415l-.079-.147.586-2.565,7.181.014a7.112,7.112,0,0,0,.76,1.378A3.576,3.576,0,0,0,133.2,481.452Zm-7.9-10.569a.9.9,0,1,1,1.795-.072A.9.9,0,0,1,125.307,470.883Zm-5.574-7.148a.9.9,0,1,1,.395,1.751A.9.9,0,0,1,119.733,463.735Zm0,35.638a.906.906,0,0,1,.468,1.75A.906.906,0,0,1,119.735,499.373Zm-7.06-9.127a8.919,8.919,0,1,1-5.408-16.669C117.282,472.645,121.091,485.647,112.675,490.246Zm13.478,2.851a.912.912,0,0,1,.436,1.725C125.324,495.413,124.715,493.278,126.153,493.1Zm2.031-9.832c-1.235-2.448,2.843-3.854,3.316-1.11a2.324,2.324,0,0,1,.017.455A1.773,1.773,0,0,1,128.184,483.265Z" fill="#464241"/>
      <path id="Trazado_172" data-name="Trazado 172" d="M107.175,494.865a12.5,12.5,0,0,1,0-24.873c.839-.1,2.049.221,2.1-.96l-.051-10.93a1.345,1.345,0,0,0-.19-.345.928.928,0,0,0-.578-.241,33.162,33.162,0,0,0-4.568,0c-.527.05-.674.268-.837.731-.413,1.176-.535,2.55-.973,3.731-.733.3-1.48.552-2.212.853-.322.133-1.18.624-1.41.663a.367.367,0,0,1-.282-.043L94.74,461.4a.775.775,0,0,0-.75.181l-6.417,6.413c-.4.52-.261.7,0,1.214.538,1.072,1.355,2.091,1.89,3.175-.311.809-.709,1.581-1.032,2.384A13.1,13.1,0,0,1,88,476.047c-.077.115-.146.121-.26.167-1.078.428-2.724.489-3.764.941a.979.979,0,0,0-.495.573l0,2.628-.044,4.948h0a15.6,15.6,0,0,0,.061,1.883,1.022,1.022,0,0,0,.481.516l3.96,1.029c.3.75.565,1.515.874,2.262.13.312.6,1.125.643,1.36a.371.371,0,0,1-.043.282l-2.05,3.44a.752.752,0,0,0,.149.71c.062.092.721.768,1.143,1.183h0c.1.1.186.181.248.238l.629.615a1.385,1.385,0,0,0,.43.421l.567.553,0,.026c.063.052.125.105.188.16.273.265.5.488.643.616a28.2,28.2,0,0,0,2.592,2.643c.449.346.594.3,1.072.071,1.118-.531,2.188-1.418,3.317-1.962a31.886,31.886,0,0,0,3.765,1.49l1.006,4a.975.975,0,0,0,.574.495c1.523-.128,3.359.184,4.844.005a.826.826,0,0,0,.75-.889l-.034-10.877C108.959,494.69,107.911,494.953,107.175,494.865Zm.32,10.763H104.68l-.106-.178c-.331-1.1-.482-2.368-.835-3.442a1.138,1.138,0,0,0-.383-.615,20.993,20.993,0,0,0-2.079-.7c-.287-.111-.581-.225-.863-.349-.67-.295-1.754-1.109-2.449-.861l-3.32,1.931L92.9,499.69s-1.685-1.708-2.573-2.584c-.263-.324-.962-.8-.923-1.048l1.931-3.207a1.126,1.126,0,0,0,.022-.7c-.136-.521-.8-1.557-1.048-2.159a21.95,21.95,0,0,0-1.019-2.686c-.419-.391-3.05-.752-3.8-1.047-.093-.036-.215-.063-.264-.163a3.46,3.46,0,0,1-.056-.8h.01v-1.37c0-.262.008-.475.007-.582a.7.7,0,0,1,.01-.1v-.305l-.017-.009v-.846l.017.035V481.6l-.015-.159,0,0v-.262l.017.006v-.2a.988.988,0,0,1-.01-.114c0-.072,0-.151-.007-.235h0a12.534,12.534,0,0,1,.008-1.7c.013-.1.014-.187.105-.25,1.124-.445,2.506-.533,3.62-.942a1.057,1.057,0,0,0,.485-.3c.281-.714.468-1.461.747-2.175.287-.733,1.051-1.944,1.213-2.564a1.249,1.249,0,0,0,0-.648l-1.962-3.312,5.252-5.3,3.32,1.931a1.13,1.13,0,0,0,.7.022c.621-.162,1.826-.924,2.564-1.213.7-.274,1.423-.475,2.132-.719a1.138,1.138,0,0,0,.383-.615c.375-1.138.507-2.473.9-3.62h2.744l.107.107v8.873a14.246,14.246,0,0,0,0,28.438Z" fill="#464241"/>
    </g>
  </g>
</svg>
