<svg xmlns="http://www.w3.org/2000/svg" width="59.877" height="67.339" viewBox="0 0 59.877 67.339">
  <g id="Grupo_162" data-name="Grupo 162" transform="translate(-344.864 -3016.12)">
    <path id="Trazado_245" data-name="Trazado 245" d="M374.468,3016.162a1.512,1.512,0,0,1,.545-.026c9.02,3.488,18.394,6.188,27.376,9.76.881.35,1.9.447,2.03,1.578.228,1.942-.048,4.578-.01,6.623.091,4.825.28,9.739.314,14.566.03,4.142.152,7.908-1.019,11.921-3.677,12.6-17.073,19.515-28.836,22.875-12.186-3.327-26.238-10.849-29.328-24.161-.814-3.51-.677-7.2-.651-10.784.034-4.824.22-9.743.313-14.567.038-2-.232-4.573-.01-6.473a1.284,1.284,0,0,1,.823-1.131Zm27.522,12.163-27.258-9.651-27.111,9.651c-.163,6.635-.122,13.254-.165,19.9-.041,6.487-.57,10.636,2.824,16.553,3.617,6.3,12.32,11.755,18.966,14.4a33.248,33.248,0,0,0,5.39,1.8,16.719,16.719,0,0,0,3.364-1.009c11.6-4.048,23.82-11.975,24.319-25.582Z" fill="#fb081a"/>
    <path id="Trazado_246" data-name="Trazado 246" d="M374.315,3021.276a2.354,2.354,0,0,1,1.215.067l22.912,8.2c1.769.43,1.1,2.932,1.158,4.4.17,4.556.12,9.1.15,13.677.037,5.537.694,9.563-1.866,14.806-3.27,6.7-12.606,12.36-19.434,14.835a17.164,17.164,0,0,1-3.716,1.1,20.4,20.4,0,0,1-3.573-1.1c-6.9-2.458-16.2-8.19-19.459-14.96-2.544-5.28-1.878-9.107-1.841-14.681.031-4.574-.02-9.121.151-13.677.054-1.467-.612-3.973,1.157-4.4Zm22.868,10.352-22.429-7.941-22.329,7.938c-.248,5.572-.121,11.16-.159,16.751-.027,3.907-.528,6.939.74,10.821,2.772,8.486,13.749,14.193,21.748,16.711,10.179-3.358,22.1-9.52,22.755-21.669.106-1.961-.151-3.934-.164-5.863-.031-4.524.023-9.021-.15-13.527C397.154,3033.778,397.254,3032.7,397.183,3031.628Z" fill="#fb081a"/>
    <path id="Trazado_247" data-name="Trazado 247" d="M373.122,3030.6a19.293,19.293,0,0,1,18.393,28.764c-7.418,13.032-26.466,12.765-33.622-.4C351.307,3046.854,359.411,3031.689,373.122,3030.6Zm.481,8.071v-5.561a8.852,8.852,0,0,0-4.96,4.507Zm2.4-5.561v5.561l4.96-1.054A8.843,8.843,0,0,0,376.008,3033.114Zm-8.568,1.654a5.9,5.9,0,0,0-2.253,1.35l1,.435.2-.047Zm16.985,1.35a5.907,5.907,0,0,0-2.254-1.35l1.051,1.738.2.047Zm-26.453,12.477h5.411c-.143-3.384.871-6.625,1.815-9.823l-2.043-1.106A17.54,17.54,0,0,0,357.972,3048.595Zm33.668,0a17.55,17.55,0,0,0-5.183-10.929l-2.044,1.106c.944,3.2,1.958,6.439,1.816,9.823ZM373.6,3041.08l-6.154-1.194a26.318,26.318,0,0,0-1.662,8.709H373.6Zm2.4,0v7.515h7.816a26.318,26.318,0,0,0-1.662-8.709ZM363.383,3051h-5.411a17.545,17.545,0,0,0,5.183,10.93l2.043-1.106C364.254,3057.625,363.24,3054.384,363.383,3051Zm10.22,0h-7.816a26.318,26.318,0,0,0,1.662,8.709l6.154-1.194Zm10.221,0h-7.816v7.515l6.154,1.194A26.624,26.624,0,0,0,383.824,3051Zm7.816,0h-5.411c.142,3.384-.872,6.625-1.816,9.824l2.044,1.106A17.555,17.555,0,0,0,391.64,3051Zm-18.037,9.92-4.96,1.054a8.893,8.893,0,0,0,4.96,4.507Zm2.4,0v5.561a8.886,8.886,0,0,0,4.96-4.507Zm-8.568,3.907-1.051-1.738-.2-.047-1,.435A5.892,5.892,0,0,0,367.44,3064.827Zm16.985-1.35-1-.435-.2.047-1.051,1.738A5.9,5.9,0,0,0,384.425,3063.477Z" fill="#fb081a"/>
  </g>
</svg>