<svg xmlns="http://www.w3.org/2000/svg" width="66.6" height="66.614" viewBox="0 0 66.6 66.614">
  <g id="Grupo_159" data-name="Grupo 159" transform="translate(-566.651 -3016.12)">
    <path id="Trazado_235" data-name="Trazado 235" d="M603.587,3019.564l4.471.788c.51-1.613,1.277-2.723,3.168-2.258a24.285,24.285,0,0,1,3.018,1.268c1.691.962,1.176,2.373.571,3.842l3.584,2.4c.361.123.9-.735,1.228-.979a2.1,2.1,0,0,1,1.788-.36c.809.17,3.458,2.807,3.67,3.6a2.376,2.376,0,0,1-.218,1.738c-.234.4-1.218,1-1.09,1.377l2.405,3.587c1.452-.641,2.9-1.094,3.841.568a24.058,24.058,0,0,1,1.293,3.122c.4,1.752-.677,2.678-2.267,3l.772,4.539c1.2-.056,2.606-.122,3.183,1.167a15.623,15.623,0,0,1,.194,4.222c-.2,1.806-1.86,2.035-3.377,1.882l-.773,4.539c1.176.3,2.258.785,2.337,2.146a12.94,12.94,0,0,1-1.32,3.884c-.892,1.641-2.3,1.439-3.744.651l-2.587,3.675c.763,1.033,1.756,1.516,1.351,3.032a10.826,10.826,0,0,1-3.571,3.571,2.37,2.37,0,0,1-1.738-.218c-.4-.234-1-1.218-1.377-1.09l-3.588,2.406c.407,1.165,1.042,2.1.143,3.252a13.035,13.035,0,0,1-3.632,1.822c-1.836.518-2.829-.508-3.2-2.208l-4.539.772c.056,1.2.122,2.607-1.167,3.183a15.584,15.584,0,0,1-4.222.194c-1.806-.2-2.035-1.86-1.882-3.377l-4.539-.772c-.3,1.175-.785,2.257-2.146,2.337a12.945,12.945,0,0,1-3.885-1.321c-1.64-.892-1.438-2.3-.65-3.743l-3.675-2.587c-1.033.762-1.516,1.755-3.032,1.35a10.808,10.808,0,0,1-3.571-3.571,2.371,2.371,0,0,1,.218-1.738c.234-.4,1.218-1,1.09-1.376l-2.406-3.588c-1.451.641-2.895,1.094-3.84-.568a24.076,24.076,0,0,1-1.293-3.122c-.407-1.78.681-2.637,2.267-3l-.772-4.539c-1.2.056-2.607.123-3.183-1.167a15.583,15.583,0,0,1-.194-4.222c.2-1.806,1.86-2.035,3.377-1.882l.772-4.539c-1.175-.3-2.257-.785-2.337-2.146a12.944,12.944,0,0,1,1.321-3.884c.892-1.641,2.3-1.439,3.743-.65l2.587-3.676c-.775-1.077-1.769-1.457-1.35-3.032.21-.794,2.862-3.432,3.669-3.6a2.135,2.135,0,0,1,1.715.3c.361.241.935,1.16,1.3,1.035l3.588-2.405c-.641-1.452-1.094-2.9.568-3.841a25.436,25.436,0,0,1,3.326-1.348c1.689-.256,2.452.842,2.792,2.323l4.539-.773c-.156-1.5.08-3.185,1.882-3.377a22.4,22.4,0,0,1,3.625.012C603.524,3016.43,603.739,3018.148,603.587,3019.564Zm-2.077-1.3h-3.117c.367,3.47-1.5,3.209-4.053,3.675-1.288.235-2.918,1.066-4-.1a5.694,5.694,0,0,1-.849-1.756l-2.9,1.235c.665,1.266,1.067,2.42-.157,3.5-.341.3-4.238,2.847-4.5,2.9-1.327.279-2.13-.526-2.957-1.4l-2.141,2.141c1.068,1,1.93,1.982,1.141,3.48a41.747,41.747,0,0,1-2.647,3.977c-1.1,1.3-2.244.714-3.564.2l-1.166,2.931c1.7.4,2.529,1.055,2.324,2.91-.168,1.511-.819,3.084-.963,4.621-.525,1.384-1.907,1.371-3.179,1.3v3.117c1.272-.07,2.654-.083,3.179,1.3.144,1.537.8,3.11.963,4.622.205,1.854-.622,2.515-2.324,2.909l1.166,2.931c1.32-.518,2.466-1.1,3.564.2a41.871,41.871,0,0,1,2.647,3.977c.789,1.5-.073,2.481-1.141,3.48l2.141,2.141c.827-.871,1.63-1.675,2.957-1.4.262.054,4.158,2.6,4.5,2.9,1.224,1.079.822,2.233.157,3.5l2.969,1.232c.714-3.214,2.439-2.286,4.779-1.857,2.553.468,4.42.2,4.053,3.675h3.117c-.368-3.472,1.5-3.207,4.052-3.675,2.341-.429,4.065-1.357,4.78,1.857l2.969-1.232c-.657-1.231-1.071-2.46.157-3.5.37-.314,4.237-2.847,4.5-2.9,1.327-.278,2.131.527,2.958,1.4l2.14-2.141c-1.068-1-1.929-1.982-1.14-3.48a40.427,40.427,0,0,1,2.646-3.977c1.1-1.3,2.245-.713,3.565-.2l1.165-2.931c-1.7-.394-2.529-1.055-2.323-2.909.167-1.512.818-3.085.962-4.622.526-1.384,1.907-1.371,3.18-1.3v-3.117c-3.472.368-3.207-1.5-3.675-4.052-.429-2.341-1.357-4.065,1.857-4.78l-1.232-2.969c-1.231.657-2.461,1.071-3.5-.157-.309-.366-2.847-4.237-2.9-4.5-.279-1.327.526-2.131,1.4-2.958l-2.14-2.141c-1,1.068-1.982,1.93-3.48,1.141a41.873,41.873,0,0,1-3.977-2.646c-1.3-1.1-.714-2.245-.2-3.565l-2.931-1.166c-.394,1.7-1.055,2.529-2.91,2.324-1.511-.167-3.084-.818-4.621-.962C601.427,3020.919,601.44,3019.538,601.51,3018.265Z" fill="#fb081a"/>
    <path id="Trazado_236" data-name="Trazado 236" d="M612.484,3060.343c9.556-.884,13.244-13.215,5.84-19.347-4.63-3.834-10.9-2.082-16.425-2.47a1.048,1.048,0,0,1-1.395,1.458c-.142-.058-2.259-1.647-2.373-1.782a1.063,1.063,0,0,1,.068-1.495,25.912,25.912,0,0,1,2.225-1.67,1.046,1.046,0,0,1,1.475,1.409c3.409.186,7.074-.247,10.453,0,12.419.919,16.5,17.4,5.95,24-4.486,2.806-9.359,1.806-14.389,1.974a3.459,3.459,0,0,0,.064-2.078C606.718,3060.156,609.781,3060.592,612.484,3060.343Z" fill="#fb081a"/>
    <path id="Trazado_237" data-name="Trazado 237" d="M587.419,3038.525c-9.56.884-13.245,13.214-5.84,19.346,4.63,3.834,10.9,2.082,16.424,2.471-.446-1.021.283-2.044,1.4-1.589.142.058,2.258,1.647,2.373,1.782a1.063,1.063,0,0,1-.068,1.5,21.782,21.782,0,0,1-2.225,1.671c-.992.5-1.772-.254-1.6-1.281-4.939-.324-10.531.925-15.107-1.321a13.047,13.047,0,0,1-1.635-22.368c4.59-3.146,9.533-2.141,14.793-2.283a4.221,4.221,0,0,0,0,2.077C593.185,3038.711,590.121,3038.275,587.419,3038.525Z" fill="#fb081a"/>
    <path id="Trazado_238" data-name="Trazado 238" d="M592.7,3041.62a10.831,10.831,0,0,0,1.2-.111c1.667.085,4.3,2.882,3.438,4.719,2.208,1.074,2.208,5.336,0,6.411.8,2.3-2.272,5.376-4.577,4.577-1.075,2.209-5.337,2.209-6.412,0-2.3.8-5.375-2.272-4.577-4.577-2.208-1.074-2.209-5.336,0-6.411-.8-2.3,2.276-5.377,4.577-4.577.8-1.968,4.548-2.067,5.867-.788A6.455,6.455,0,0,1,592.7,3041.62Zm-3.956.569c-.66.151-.469.628-.684,1.005a4.42,4.42,0,0,1-1.684.795c-.475-.005-.6-.541-1.236-.346a5.539,5.539,0,0,0-1.223,1.121c-.538.839.312.975.165,1.716a11.362,11.362,0,0,1-.617,1.339c-.313.3-.858.123-1.082.607a4.779,4.779,0,0,0-.088,1.714c.14.893.894.5,1.274,1.064a7.585,7.585,0,0,1,.547,1.414c-.006.474-.542.6-.347,1.236a5.508,5.508,0,0,0,1.121,1.222c.839.539.975-.312,1.716-.164a11.26,11.26,0,0,1,1.339.617c.3.312.123.858.607,1.081a4.763,4.763,0,0,0,1.714.088c.893-.139.5-.893,1.064-1.274a7.685,7.685,0,0,1,1.414-.546c.474.006.6.541,1.236.346a5.514,5.514,0,0,0,1.222-1.121c.539-.839-.311-.974-.164-1.716a11.359,11.359,0,0,1,.617-1.339c.312-.3.858-.122,1.081-.607a4.728,4.728,0,0,0,.088-1.713c-.139-.894-.893-.5-1.273-1.064a7.637,7.637,0,0,1-.547-1.415c.006-.474.541-.6.346-1.235a5.517,5.517,0,0,0-1.121-1.223c-.838-.539-.974.312-1.715.164a11,11,0,0,1-1.339-.617c-.3-.312-.123-.857-.607-1.081A4.805,4.805,0,0,0,588.746,3042.189Z" fill="#fb081a"/>
    <path id="Trazado_239" data-name="Trazado 239" d="M613.481,3041.62a10.831,10.831,0,0,0,1.2-.111c1.667.085,4.3,2.882,3.438,4.719,2.208,1.074,2.208,5.336,0,6.411.8,2.3-2.272,5.376-4.578,4.577-1.074,2.209-5.336,2.209-6.411,0-2.3.8-5.376-2.272-4.577-4.577-2.208-1.074-2.209-5.336,0-6.411-.8-2.3,2.276-5.377,4.577-4.577.8-1.968,4.548-2.067,5.867-.788A6.446,6.446,0,0,1,613.481,3041.62Zm-3.956.569c-.66.151-.469.628-.684,1.005a4.42,4.42,0,0,1-1.684.795c-.475-.005-.6-.541-1.236-.346a5.539,5.539,0,0,0-1.223,1.121c-.538.839.312.975.165,1.716a11.362,11.362,0,0,1-.617,1.339c-.313.3-.858.123-1.082.607a4.779,4.779,0,0,0-.088,1.714c.14.893.894.5,1.274,1.064a7.654,7.654,0,0,1,.547,1.414c-.006.474-.542.6-.347,1.236a5.508,5.508,0,0,0,1.121,1.222c.839.539.975-.312,1.716-.164a11.259,11.259,0,0,1,1.339.617c.3.312.123.858.607,1.081a4.763,4.763,0,0,0,1.714.088c.893-.139.5-.893,1.064-1.274a7.682,7.682,0,0,1,1.414-.546c.474.006.6.541,1.236.346a5.513,5.513,0,0,0,1.222-1.121c.539-.839-.312-.974-.164-1.716a11.359,11.359,0,0,1,.617-1.339c.312-.3.858-.122,1.081-.607a4.751,4.751,0,0,0,.088-1.713c-.139-.894-.893-.5-1.274-1.064a7.7,7.7,0,0,1-.546-1.415c.006-.474.541-.6.346-1.235a5.517,5.517,0,0,0-1.121-1.223c-.838-.539-.974.312-1.715.164a11,11,0,0,1-1.339-.617c-.3-.312-.123-.857-.607-1.081A4.805,4.805,0,0,0,609.525,3042.189Z" fill="#fb081a"/>
    <path id="Trazado_240" data-name="Trazado 240" d="M588.881,3045.312c5.679-.825,6.564,7.631,1.251,8.263C584.586,3054.234,583.718,3046.062,588.881,3045.312Zm.257,2.075c-2.561.415-1.989,4.6.848,4.094A2.091,2.091,0,0,0,589.138,3047.387Z" fill="#fb081a"/>
    <path id="Trazado_241" data-name="Trazado 241" d="M609.66,3045.312c5.679-.825,6.564,7.631,1.251,8.263C605.365,3054.234,604.5,3046.062,609.66,3045.312Zm.257,2.075c-2.561.415-1.99,4.6.848,4.094A2.091,2.091,0,0,0,609.917,3047.387Z" fill="#fb081a"/>
  </g>
</svg>