<svg xmlns="http://www.w3.org/2000/svg" width="41.043" height="48.453" viewBox="0 0 41.043 48.453">
  <g id="Grupo_43" data-name="Grupo 43" transform="translate(-265.784 -486.953)">
    <path id="Trazado_14" data-name="Trazado 14" d="M303.224,526.019l2.8,5.965a1.007,1.007,0,0,1-.936,1.3c-.406-.022-2.7-1.116-2.809-1.015l-.96,2.688a.96.96,0,0,1-1.677-.1l-2.1-4.484c-.134.008-.145.145-.191.233a42.508,42.508,0,0,1-2.1,4.346.937.937,0,0,1-1.544.059c-.282-.352-.962-2.714-1.138-2.731-.768.175-2.19,1.063-2.917.913-2.1-.432.6-3.633.688-4.715l-4.978-.005c-5.644-.005-11.3.062-16.959,0-.776-.008-2.234.334-2.5-.616-.238-13.18-.028-26.4-.105-39.6.039-.519.11-1.13.683-1.307H287.2c3.653,3.29,6.948,7.017,10.487,10.451l.331.711.018,11.636,2.321,2.321c1.02.124,2.2-.1,3.2.017,1.391.162.575,3.049.822,4.01.1.352,1.911,1.793,2.255,2.292.894,1.295-1.575,2.609-2.225,3.555C304.047,523.186,305.147,525.928,303.224,526.019Zm-7.2-26.907H286.6c-.182,0-.711-.443-.711-.616v-9.474l-.142-.142H267.886v37.612h23.59l.1-.568a1.06,1.06,0,0,1-1.132-.716c-.178-.974.162-2.34-.054-3.357-.566-.782-1.75-1.431-2.276-2.176-.42-.6-.244-.958.148-1.471s1.946-1.734,2.128-2.135a2.713,2.713,0,0,0,.049-.851h-19.28a2.139,2.139,0,0,1-.619-.328,1.047,1.047,0,0,1,.642-1.734l19.351-.023a.924.924,0,0,1,.636-1.022c.935-.21,2.355.155,3.342-.069l1.518-1.514Zm-1.422-1.99-6.726-6.726v6.726Zm7.769,16.959h-2.8c-.437,0-2.015-2.026-2.26-1.983l-2.1,1.983h-2.795v2.795l-1.982,2.166c.291.441,1.982,1.775,1.982,2.192v2.7h2.511c.792,0,2.089,1.993,2.463,1.993.621-.285,1.736-1.993,2.369-1.993h2.605l.02-2.87,1.878-2.009-1.856-2.032ZM294.6,531.7c.144-.845,1.745-3.258,1.706-3.924a.729.729,0,0,0-.189-.386c-.1-.147-1.354-1.411-1.463-1.473-.237-.136-.637-.181-.8.062l-2,4.3c.782-.014,1.553-.759,2.149.078Zm6.334-5.763a1.771,1.771,0,0,0-.6-.013,6.822,6.822,0,0,0-1.828,1.956l1.827,3.82c.387-1.627,1.024-2.091,2.6-1.326Z" fill="#fb081a"/>
    <path id="Trazado_15" data-name="Trazado 15" d="M271.082,506.619l21.98.049a1.022,1.022,0,0,1-.21,1.92l-22.005-.074A1.013,1.013,0,0,1,271.082,506.619Z" fill="#fb081a"/>
    <path id="Trazado_16" data-name="Trazado 16" d="M270.985,519.88l10.869-.014a1.034,1.034,0,0,1,.218,1.912l-11.007.066A1.023,1.023,0,0,1,270.985,519.88Z" fill="#fb081a"/>
    <path id="Trazado_17" data-name="Trazado 17" d="M270.571,500.187a.841.841,0,0,1,.577-.229c3.234-.306,6.955.245,10.24,0a1.006,1.006,0,0,1-.094,1.994c-3.181-.267-6.932.35-10.045,0A1.042,1.042,0,0,1,270.571,500.187Z" fill="#fb081a"/>
  </g>
</svg>
