<svg xmlns="http://www.w3.org/2000/svg" width="66.859" height="66.595" viewBox="0 0 66.859 66.595">
  <g id="Grupo_160" data-name="Grupo 160" transform="translate(-116.904 -3016.491)">
    <path id="Trazado_242" data-name="Trazado 242" d="M149.411,3016.519a20.084,20.084,0,0,1,20.359,25.711c-3.942,13.951-21.445,19.407-32.523,9.858C123.387,3040.139,130.873,3017.46,149.411,3016.519Zm-.267,2.484c-2.444.538-4.182,2.6-5.355,4.683-.053.32.069.179.212.237a19.742,19.742,0,0,0,5.143,1.027Zm2.379,0v5.947a19.734,19.734,0,0,0,5.143-1.027c.144-.058.266.083.213-.237C155.7,3021.617,153.963,3019.531,151.523,3019Zm-8.624,1.488-2.824,1.559,1.342.753Zm17.694,1.488-2.824-1.488,1.482,2.312C159.444,3022.9,160.7,3022.14,160.593,3021.979Zm-27.953,13.528h5.65a30.537,30.537,0,0,1,2.088-10.472l-2.29-1.259A16.745,16.745,0,0,0,132.64,3035.507Zm35.388,0a16.746,16.746,0,0,0-5.449-11.731l-2.29,1.259a30.513,30.513,0,0,1,2.088,10.472Zm-18.884-8.178a24.2,24.2,0,0,1-6.54-1.338,28.994,28.994,0,0,0-1.935,9.516h8.475Zm2.379,0v8.178H160a28.994,28.994,0,0,0-1.935-9.516A24.2,24.2,0,0,1,151.523,3027.329Zm-13.233,10.557h-5.65a16.991,16.991,0,0,0,3.871,10.032c.23.282,1.333,1.557,1.552,1.562l2.29-1.275A31.066,31.066,0,0,1,138.29,3037.886Zm10.854,0h-8.475a28.051,28.051,0,0,0,1.948,9.356,31.126,31.126,0,0,1,6.527-1.327Zm10.855,0h-8.476v8.029a31.123,31.123,0,0,1,6.528,1.327A28.205,28.205,0,0,0,160,3037.886Zm8.029,0h-5.651a31.039,31.039,0,0,1-2.062,10.319c.661.339,2.047,1.586,2.668,1.066.206-.173.946-1.073,1.174-1.353A17.133,17.133,0,0,0,168.028,3037.886Zm-18.884,10.408a25.521,25.521,0,0,0-5.355,1.118c.928,2.132,2.974,4.38,5.355,4.83Zm2.379,0v5.948c2.382-.45,4.428-2.7,5.356-4.83A25.53,25.53,0,0,0,151.523,3048.294Zm-9.984,2.25c-.237-.138-1.464.541-1.462.65a11.193,11.193,0,0,0,2.823,1.559Zm16.229,2.209a10.267,10.267,0,0,0,2.822-1.559c0-.109-1.224-.788-1.461-.65Z" fill="#fb081a"/>
    <path id="Trazado_243" data-name="Trazado 243" d="M125.8,3050.822a6.928,6.928,0,0,1,8.162,1.279,101.932,101.932,0,0,1,8.339,8.463c3.116,3.887,1.8,9.282,2.084,13.9,1.931-.154,3.553.266,3.724,2.446a22.628,22.628,0,0,1-.106,4.515,2.45,2.45,0,0,1-2.1,1.623l-18.994.039a2.511,2.511,0,0,1-2.307-2,29.1,29.1,0,0,1,.073-4.989c.348-1.334,2.134-1.82,3.35-1.631a2.612,2.612,0,0,0-.039-.63c-.412-2.768-7.591-10.686-9.511-13.684a8.4,8.4,0,0,1-1.459-4.043c-.377-5.037.3-10.536,0-15.623a4.5,4.5,0,0,1,7.431-2.96,6.055,6.055,0,0,1,1.347,2.37Zm4.609,23.641h11.449v-9.442c0-.821-1.3-2.831-1.857-3.5-1.356-1.609-6.907-7.36-8.448-8.353-1.739-1.122-4.91-1.149-5.689,1.082l8.857,8.982c.888,1.339-.692,2.55-1.86,1.563-2.362-2.938-6.529-5.767-8.7-8.7a4.184,4.184,0,0,1-.742-1.935c-.439-4.351.354-9.368-.036-13.79a2.024,2.024,0,0,0-3.983.258c.328,4.951-.426,10.438,0,15.324a6.176,6.176,0,0,0,1.222,3.089c2.541,3.857,6.5,7.75,8.716,11.654A7.219,7.219,0,0,1,130.41,3074.463Zm15.315,2.379H126.99v3.866h18.735Z" fill="#fb081a"/>
    <path id="Trazado_244" data-name="Trazado 244" d="M174.867,3039.893a5.518,5.518,0,0,1,1.649-2.515,4.4,4.4,0,0,1,7.129,3.1c-.3,5.087.378,10.586,0,15.623a8.392,8.392,0,0,1-1.458,4.043c-2.5,3.9-6.315,7.647-8.662,11.559a5.293,5.293,0,0,0-.889,2.755c1.251-.173,2.991.251,3.351,1.631a29.1,29.1,0,0,1,.073,4.989,2.512,2.512,0,0,1-2.308,2l-18.993-.039a2.45,2.45,0,0,1-2.1-1.623,22.628,22.628,0,0,1-.106-4.515c.171-2.18,1.793-2.6,3.724-2.446.106-2.522-.142-5.156-.007-7.665.391-7.224,7.41-10.9,11.856-15.8a6.941,6.941,0,0,1,6.736-.178Zm-4.609,34.57a7.219,7.219,0,0,1,1.07-3.763c2.22-3.9,6.175-7.8,8.716-11.654a6.176,6.176,0,0,0,1.222-3.089c.424-4.886-.331-10.373,0-15.324a2.024,2.024,0,0,0-3.983-.258c-.389,4.425.4,9.436-.037,13.79a3.911,3.911,0,0,1-.894,2.08c-2.276,2.936-6.113,5.633-8.544,8.554-1.17.987-2.748-.225-1.86-1.563l8.862-8.99c.211-.756-1.563-1.6-2.163-1.723a4.556,4.556,0,0,0-4.1,1.12c-1.779,1.463-7.943,7.582-8.92,9.369a8.835,8.835,0,0,0-.815,2.009v9.442Zm3.42,2.379H154.943v3.866h18.735Z" fill="#fb081a"/>
  </g>
</svg>