<svg xmlns="http://www.w3.org/2000/svg" width="35.92" height="25.53" viewBox="0 0 35.92 25.53">
  <g id="Grupo_241" data-name="Grupo 241" transform="translate(-558.078 -1980.967)">
    <path id="Trazado_127" data-name="Trazado 127" d="M594,1980.967v3.782c-4.546-.43-9.25,2.4-9.928,7.092H591.4v3.782H584.07a8.841,8.841,0,0,0,9.928,7.092v3.782h-3.664a13.969,13.969,0,0,1-4.208-1.7,12.963,12.963,0,0,1-2.886-19.813c1.385-1.525,5.295-4.016,7.33-4.016Z" fill="#464241"/>
    <path id="Trazado_128" data-name="Trazado 128" d="M572.25,1980.967v3.782c-3.874-.375-7.965,1.61-9.5,5.277a9.05,9.05,0,0,0,9.5,12.689v3.782h-3.664a13.965,13.965,0,0,1-4.209-1.7c-8.429-4.99-8.418-17.422.15-22.215a15.224,15.224,0,0,1,4.3-1.614Z" fill="#464241"/>
  </g>
</svg>
