<svg xmlns="http://www.w3.org/2000/svg" width="68.462" height="27.701" viewBox="0 0 68.462 27.701">
  <g id="Grupo_115" data-name="Grupo 115" transform="translate(-612.504 -1978.366)">
    <path id="Trazado_129" data-name="Trazado 129" d="M642.644,1978.366c6.144.692,9.336,4.859,11.405,10.119.116.294-.109.625.412.521l6.622-10.64h3.428l-.521,1.253c-5.911,7.435-11.433,26.405-22.764,26.405H630.588l-.354-.354v-15.957h3.309v13h8.392c4.445,0,8.978-5.318,9.334-9.578.442-5.291-3.98-11.7-9.57-11.7H615.814v24.23c-.819.724-2.26.207-3.31.354v-27.658Z" fill="#464241"/>
    <path id="Trazado_130" data-name="Trazado 130" d="M634.725,1989.713h3.546v8.51H641.7c1.468,0,3.827-2.02,4.468-3.332,2.162-4.428-1-8.6-5.642-8.968-6.384-.5-13.411.391-19.866.008l-.487.221c-.214.309-.29,3.186.251,3.561h8.392v3.31H617v-10.047l.354-.354h24.112c5.16,0,9.175,5.83,8.6,10.73-.435,3.729-4.5,8.181-8.366,8.181H635.08l-.355-.355Z" fill="#464241"/>
    <path id="Trazado_131" data-name="Trazado 131" d="M676.8,2001.533H660.019v-3.31h10.638l-6.028-10.16-10.4,17.961h-4.137l14.538-24.58Z" fill="#464241"/>
    <path id="Trazado_132" data-name="Trazado 132" d="M660.019,2006.024v-3.31h18.911l-14.184-24.348h3.428l12.791,20.8-4.044,6.855Z" fill="#464241"/>
    <path id="Trazado_133" data-name="Trazado 133" d="M628.815,1994.2v3.31h-8.747v8.51H617V1994.2Z" fill="#464241"/>
  </g>
</svg>
