<svg xmlns="http://www.w3.org/2000/svg" width="40.001" height="40.651" viewBox="0 0 40.001 40.651">
  <g id="Grupo_116" data-name="Grupo 116" transform="translate(-505.183 -1973.406)">
    <path id="Trazado_134" data-name="Trazado 134" d="M529.492,2014.026c-1.426-.182-2.174-1.749-.651-2.439.058-.088-.491-.527-.551-.787-.392-1.685,1.548-1.965,2.781-1.8.876.114,1.8,1.032,1.015,1.812-.154.152-.445.153-.4.373,1.7.709,1,2.635-.651,2.845A9.49,9.49,0,0,1,529.492,2014.026Zm.266-3.677a7.028,7.028,0,0,0,1.064.414c.9-.616.274-1.247-.633-1.119C529.833,2009.694,529.449,2010.029,529.758,2010.349Zm-.13,1.585a.724.724,0,0,0-.442.976c.455.921,2.65.475,1.775-.392A4.413,4.413,0,0,0,529.628,2011.934Z" fill="#464241"/>
    <path id="Trazado_135" data-name="Trazado 135" d="M519.167,2014.026c-.641-.174-1.4-.4-1.443-1.2-.064-1.181,1.737-1.343,1.611-.14a.431.431,0,0,1-.079.249c-.122.158-.436.1-.495.276.506.143,1.584.244,1.7-.451s-.2-1.033-.889-1.011l-.006-.6c1.732-.3.534-2.118-.643-1.228,1.383.967-.8,1.719-1.037.712-.405-1.766,2.956-2.127,3.844-1.163a1.13,1.13,0,0,1-.532,1.832c1.594.661,1.155,2.41-.407,2.722Z" fill="#464241"/>
    <path id="Trazado_136" data-name="Trazado 136" d="M534.533,2014.026c-.644-.2-1.285-.582-1.3-1.344-.033-1.21,1.951-1.073,1.613.067-.1.323-.479.183-.47.463,1.721.938,2.116-2.258.549-2.014-.2.03-.343.193-.514.224-.259.047-.579-.022-.848,0l.162-2.437a13.025,13.025,0,0,0,3.577-.081c.22.537-.9,1.137-1.26,1.137h-1.585v.568c.976-.4,2.678-.246,3.012.931a1.861,1.861,0,0,1-1.549,2.482Z" fill="#464241"/>
    <path id="Trazado_137" data-name="Trazado 137" d="M524.858,1973.406c1.078.221,1.246,2.2.165,2.481a9.179,9.179,0,0,1-1.548.12l-.081-2.52.454,0,.2-.085Zm-.65,2.031c1.111.114,1-1.7-.082-1.462Z" fill="#464241"/>
    <path id="Trazado_138" data-name="Trazado 138" d="M545.184,1993.716c-.154.377-.236.747-.732.732.036-.185-.127-.436-.074-.6.035-.107.721-.477.116-.785-.259.06-.222,1.255-.769,1.426-1.523.475-1.478-2.2-.374-2.241a.921.921,0,0,1,.133.613c-.02.175-.787.483-.284.927.532.176.386-1.042.868-1.318.564-.323.915.095,1.116.593Z" fill="#464241"/>
    <path id="Trazado_139" data-name="Trazado 139" d="M505.183,1992.091a.961.961,0,0,1,.812-.812,4.108,4.108,0,0,1-.012.678c-.049.142-.261.109-.313.338-.086.384.167.615.367.2.177-.365.184-.974.63-1.157,1.381-.568,1.6,2.266.224,2.213l-.006-.681c.7-.075.433-1.207,0-.746-.224.241-.275,1.119-.7,1.247-.556.166-.84-.156-1-.633Z" fill="#464241"/>
    <path id="Trazado_140" data-name="Trazado 140" d="M524.11,1979.361a14.145,14.145,0,1,1-10.375,22.423A14.169,14.169,0,0,1,524.11,1979.361Zm.9,1.134c-1.451.115-2.7,1.644-3.36,2.821a9.211,9.211,0,0,0-.734,1.545c-.02.086-.074.161,0,.248a12.486,12.486,0,0,0,8.551,0,5.688,5.688,0,0,0-.6-1.52C528.147,1982.256,526.711,1980.359,525.005,1980.495Zm-3.155.467a11.907,11.907,0,0,0-4.552,2.234c.3.238,2.209,1.531,2.439,1.387A15.458,15.458,0,0,1,521.85,1980.962Zm11.138,2.113a13.436,13.436,0,0,0-4.553-2.113,10.428,10.428,0,0,1,2.117,3.653,8.009,8.009,0,0,0,2.275-1.256C532.913,1983.276,533.016,1983.218,532.988,1983.075Zm-14.146,4.792.454-2.116-2.976-1.746a12.913,12.913,0,0,0,0,18.935l3-1.757-.482-2.1h1.219l.367,1.626a14.394,14.394,0,0,1,9.424-.006l.453-1.62h1.22l-.451,2.113,2.97,1.751a12.963,12.963,0,0,0-.109-18.968c-.418.314-.833.648-1.279.921-.242.148-1.534.783-1.582.859-.127.2.456,1.744.451,2.113H530.3l-.453-1.62a14.537,14.537,0,0,1-9.424-.006l-.367,1.626Zm10.651,13.892a24.07,24.07,0,0,0-3.132-.649,13.928,13.928,0,0,0-5.373.64c-.089.036-.126-.045-.118.13a8.271,8.271,0,0,0,.8,1.8c.869,1.5,2.421,3.255,4.342,2.6C527.686,2005.719,529.022,2003.361,529.493,2001.759Zm-7.643,4.223c-.358-.541-.791-1.038-1.123-1.6-.17-.288-.933-2.016-1.044-2.049a10.065,10.065,0,0,0-2.385,1.415A12.283,12.283,0,0,0,521.85,2005.982Zm6.585,0a11.223,11.223,0,0,0,4.551-2.233,7.556,7.556,0,0,0-2.434-1.419A10.655,10.655,0,0,1,528.435,2005.982Z" fill="#464241"/>
    <path id="Trazado_141" data-name="Trazado 141" d="M526.728,2009.07v2.844h.732v.651h-.732l.093.639.639.011v.732h-3.009v-.732l.652-.039.162-.61h-2.318c-.209-.2-.137-.622-.079-.893.333-.27,2.259-2.6,2.437-2.6Zm-1.463,1.138-1.505,1.543.082.163h1.3l.122-.122Z" fill="#464241"/>
    <path id="Trazado_142" data-name="Trazado 142" d="M515.752,2009.07v4.022c.1.227.681.07.732.121v.732h-3.171v-.732c.057-.058.7.115.813-.121v-2.722h-.813l-.005-.6c.019-.072.646-.164.812-.259.243-.139.3-.441.331-.441Z" fill="#464241"/>
    <path id="Trazado_143" data-name="Trazado 143" d="M520.386,1976.574l-.65.163a4.436,4.436,0,0,0-.65-1.624l.237,1.861-.562.134-1.057-1.427.572,1.661-.572.208-.893-2.316,1-.37.868,1.223-.151-1.5.912-.365Z" fill="#464241"/>
    <path id="Trazado_144" data-name="Trazado 144" d="M537.543,1977.712c.865.69,1.956,1.324.976,2.48-1.008,1.188-1.758.112-2.6-.571Zm.283.977-.92,1.014c.129.174.348.388.576.352C538.053,1979.761,538.535,1979.15,537.826,1978.689Z" fill="#464241"/>
    <path id="Trazado_145" data-name="Trazado 145" d="M506.629,1988.13c.553-.068,1.422.259,1.543.852.272,1.323-.752,2.251-2.005,1.6A1.358,1.358,0,0,1,506.629,1988.13Zm-.17.809a.591.591,0,0,0-.286.656c.105.369,1.1.643,1.373.187C507.948,1989.112,506.989,1988.779,506.459,1988.939Z" fill="#464241"/>
    <path id="Trazado_146" data-name="Trazado 146" d="M541.281,1981.529l-.436.239-.785-.969-.366.243.773.935-.365.364-.773-.856c-.139-.1-.418.213-.4.318l.8.916c.023.13-.266.333-.375.343-.2.019-1.158-1.369-1.407-1.572l1.982-1.581Z" fill="#464241"/>
    <path id="Trazado_147" data-name="Trazado 147" d="M544.774,1989.495l.293,2.03-.533.078-.205-1.3-.371.131.169,1.17-.488.082-.163-1.219-.452.076.117,1.258c-.042.173-.408.144-.55.119l-.334-2.1Z" fill="#464241"/>
    <path id="Trazado_148" data-name="Trazado 148" d="M522.5,1973.568l0,.53-1.223.2.093.4,1.161-.158c.054.007.116.3.124.378.021.177-.011.087-.114.117a4.385,4.385,0,0,1-1.1.161l.082.569,1.382-.245.081.569-2.112.324c.027-.424-.552-2.194-.373-2.442Z" fill="#464241"/>
    <path id="Trazado_149" data-name="Trazado 149" d="M532.663,1977.55c-.471-.138-.849-.135-.742-.721-.254-.034-.591-.31-.826-.243-.117.033-.177.219-.345.236a2.278,2.278,0,0,1-.608-.207l1.7-2.029.816.323Zm-.651-1.3-.04-.893-.527.69C531.447,1976.141,531.967,1976.3,532.012,1976.25Z" fill="#464241"/>
    <path id="Trazado_150" data-name="Trazado 150" d="M513.15,1978.931c1.338,0,.985,1.364.019,1.765a.74.74,0,0,1-.994-.953c-.341.043-.634-.01-.716-.384C511.237,1978.343,513.216,1977.425,513.15,1978.931Zm-1.045.313c.321.2.745-.3.4-.519C512.118,1978.488,511.874,1979.1,512.1,1979.244Zm.778.185c-.355.1-.239.611.082.705C513.683,1980.344,513.417,1979.281,512.883,1979.429Z" fill="#464241"/>
    <path id="Trazado_151" data-name="Trazado 151" d="M530.224,1974.787c-.181-.025-.429.041-.593,0-.086-.021-.529-.922-.986-.158-.484.808.241,1.738.811.8l.6.25c-.316,1.207-2.184.782-2.34-.306a1.668,1.668,0,0,1,.6-1.471C528.994,1973.534,530.285,1973.866,530.224,1974.787Z" fill="#464241"/>
    <path id="Trazado_152" data-name="Trazado 152" d="M542.985,1988.52l0,.647c-1.323.182-1.713-1.843-.543-2.37a1.322,1.322,0,0,1,1.9,1.578c-.032.126-.3.543-.47.429a4.108,4.108,0,0,1-.3-.49c0-.094.529-.608-.043-.874C542.652,1987.027,541.628,1988.4,542.985,1988.52Z" fill="#464241"/>
    <path id="Trazado_153" data-name="Trazado 153" d="M541.686,1982.018l.315.679-1.126,1.351,1.785-.405.328.73-2.666.39-.331-.738c.579-.578.969-1.37,1.527-1.955C541.583,1982,541.573,1981.995,541.686,1982.018Z" fill="#464241"/>
    <path id="Trazado_154" data-name="Trazado 154" d="M514.849,1976.337l.167.429-.854.62c.1.638.412-.03.776-.124a.876.876,0,0,1,1.053.89c-.027.732-1.205,1.378-1.782.819a2.325,2.325,0,0,1,.486-.4c.125-.035.2.094.3.11.546.085.436-1.01-.226-.851-.207.051-.335.636-.76.612l-.6-1.173Z" fill="#464241"/>
    <path id="Trazado_155" data-name="Trazado 155" d="M512.092,1981.936l-.485-.324-.782.971c-.093.019-.308-.2-.358-.281a9.541,9.541,0,0,1-.4-1.947c.017-.183.294-.616.529-.454s.7.734.959.84c.179.074.416-.3.67.14l-.121.273.317.336Zm-1.3-.162.4-.516-.559-.459Z" fill="#464241"/>
    <path id="Trazado_156" data-name="Trazado 156" d="M509.574,1982.749c1.256-.661,1.538,1.055.565,1.662-.156.1-.768.271-.729,0a1.308,1.308,0,0,1,.245-.492c.079-.049.222.031.33.008.42-.088.242-.9-.361-.685-.2.07-.035.356-.253.315-.434-.165-.022-.956-.642-.818-.273.061.038.57,0,.654-.057.114-.326.278-.413.406-.649-.6.319-2.184,1.1-1.581C509.6,1982.372,509.586,1982.517,509.574,1982.749Z" fill="#464241"/>
    <path id="Trazado_157" data-name="Trazado 157" d="M533.883,1977.63l1.056.528c-.14.082-.187.585-.357.522a14.686,14.686,0,0,1-1.458-.819c-.064-.043-.191-.115-.2-.188l1.239-2.135c.14.1.622.217.6.414S533.767,1977.473,533.883,1977.63Z" fill="#464241"/>
    <path id="Trazado_158" data-name="Trazado 158" d="M509.573,1985.512l-.288.651-1.5-.652-.041.812c-.585-.211-.363-.389-.483-.817-.137-.489-.423-.488-.006-1.05Z" fill="#464241"/>
    <path id="Trazado_159" data-name="Trazado 159" d="M507.784,1994.041v.813l-2.52.162v-.812Z" fill="#464241"/>
    <path id="Trazado_160" data-name="Trazado 160" d="M527.216,1973.487l-.163,2.519h-.814l.253-2.51Z" fill="#464241"/>
    <path id="Trazado_161" data-name="Trazado 161" d="M543.307,1984.948l.232.606-2.338,1.094-.211-.735Z" fill="#464241"/>
    <path id="Trazado_162" data-name="Trazado 162" d="M531.508,1989.6c3.009-.19,5.182,1.753,4.533,4.854-.829,3.969-7.641,3.811-8.3,0C527.264,1991.7,528.71,1989.774,531.508,1989.6Zm1.289,6.284c.7-.748.64-3.6.206-4.494a1.238,1.238,0,0,0-2.166-.1,6.491,6.491,0,0,0,0,4.378A1.262,1.262,0,0,0,532.8,1995.881Z" fill="#464241"/>
    <path id="Trazado_163" data-name="Trazado 163" d="M526.647,1989.817v2.518l-1.14-.039c-.251-.3-.282-.676-.564-.98a2.1,2.1,0,0,0-2.356-.316c-1.339.991,1.366,1.367,1.882,1.521,1.04.309,2.328.717,2.5,1.974.361,2.706-2.621,3.212-4.645,2.61-.179-.053-.792-.378-.838-.375-.086.008-.156.327-.338.383a7.031,7.031,0,0,1-.92.015v-2.681l1.048.01a2.324,2.324,0,0,0,2.489,1.777c.853-.085,1.225-.8.426-1.319-1.207-.778-3.641-.524-4.1-2.318-.612-2.374,1.906-3.238,3.828-2.932.327.053,1.4.469,1.478.458.1-.016.163-.294.276-.346C525.75,1989.737,526.455,1989.884,526.647,1989.817Z" fill="#464241"/>
    <path id="Trazado_164" data-name="Trazado 164" d="M519.411,1989.817l-.036.98-.778.116c-.169.1-.15.238-.167.4-.138,1.405.111,3.039.007,4.47.1.507.79.149.938.363l.036.98H515.02v-1.056c.314-.034.891.155.974-.287-.1-1.431.145-3.065.007-4.47-.077-.785-.761-.254-.945-.518l-.036-.98Z" fill="#464241"/>
  </g>
</svg>
