<svg xmlns="http://www.w3.org/2000/svg" width="29.114" height="29.044" viewBox="0 0 29.114 29.044">
  <g id="Grupo_236" data-name="Grupo 236" transform="translate(-533.962 -5401.066)">
    <path id="Trazado_248" data-name="Trazado 248" d="M546.773,5401.144c12.743-1.228,20.939,12.393,13.44,23-6.236,8.822-19.528,7.546-24.547-1.763C530.879,5413.5,536.682,5402.116,546.773,5401.144Zm.776,1.164c-11.624.816-16.672,15.457-7.858,23.155,10,8.736,25.161-.983,21.485-13.732A13.265,13.265,0,0,0,547.549,5402.308Z" fill="#fff"/>
    <path id="Trazado_252" data-name="Trazado 252" d="M553.389,5406.791v2.714c-1.546-.016-3.141-.2-3.36,1.743a4.268,4.268,0,0,0,.2,2.133h2.907l-.388,3.23h-2.584l-.129,7.881h-3.489v-7.687l-.194-.194H543.7v-3.23h2.842v-3.424a9.73,9.73,0,0,1,.365-1.057C547.986,5406.333,551.009,5406.223,553.389,5406.791Z" fill="#fff"/>
  </g>
</svg>