<svg xmlns="http://www.w3.org/2000/svg" width="29.175" height="29.064" viewBox="0 0 29.175 29.064">
  <g id="Grupo_240" data-name="Grupo 240" transform="translate(-581.128 -5401.08)">
    <g id="Grupo_237" data-name="Grupo 237">
      <path id="Trazado_251" data-name="Trazado 251" d="M594.035,5401.145c12.909-1.143,21.081,12.941,13.129,23.336-9.514,12.437-29.307,2.644-25.573-12.523A14.555,14.555,0,0,1,594.035,5401.145Zm.775,1.162a13.24,13.24,0,1,0,10.746,21.988A13.3,13.3,0,0,0,594.81,5402.307Z" fill="#fff"/>
      <path id="Trazado_255" data-name="Trazado 255" d="M602.413,5408.517a5.258,5.258,0,0,1,1.6,3.5c.146,1.956.233,7.7-.559,9.271a4.836,4.836,0,0,1-3.9,2.561,57.405,57.405,0,0,1-7.755-.007,4.872,4.872,0,0,1-4.163-3.331c-.372-1.351-.325-7.414-.167-9a4.809,4.809,0,0,1,4.452-4.206c1.733-.15,7.546-.2,8.983.33A5.569,5.569,0,0,1,602.413,5408.517Zm-10.838.117a3.472,3.472,0,0,0-2.9,3.039,49.784,49.784,0,0,0-.036,7.715,3.546,3.546,0,0,0,3.295,3.294c1.505.15,7.2.186,8.458-.2a3.326,3.326,0,0,0,2.328-2.84,56.033,56.033,0,0,0,0-8.008,3.46,3.46,0,0,0-2.917-3.027A52.664,52.664,0,0,0,591.575,5408.634Z" fill="#fff"/>
    </g>
    <path id="Trazado_256" data-name="Trazado 256" d="M595.063,5411.476c5.89-.8,6.532,8.07.868,8.364C590.578,5420.119,589.939,5412.17,595.063,5411.476Zm.259,1.163c-4.287.583-2.784,7.192,1.322,5.844C600.068,5417.359,598.871,5412.157,595.322,5412.639Z" fill="#fff"/>
    <path id="Trazado_257" data-name="Trazado 257" d="M599.968,5410.306a.847.847,0,1,1,.458,1.63C599.354,5412.162,598.908,5410.545,599.968,5410.306Z" fill="#fff"/>
  </g>
</svg>