<svg xmlns="http://www.w3.org/2000/svg" width="29.14" height="29.088" viewBox="0 0 29.14 29.088">
  <g id="Grupo_238" data-name="Grupo 238" transform="translate(-628.129 -5401.057)">
    <path id="Trazado_250" data-name="Trazado 250" d="M632.611,5405.058a14.643,14.643,0,0,1,20.922.827c10.124,11.239-1.984,29.126-16.562,23.023A14.516,14.516,0,0,1,632.611,5405.058Zm9.2-2.751a13.246,13.246,0,1,0,10.3,22.445C660.534,5415.958,653.854,5401.516,641.812,5402.307Z" fill="#fff"/>
    <path id="Trazado_254" data-name="Trazado 254" d="M639.448,5408.213l3.761,4.516,4.019-4.4,2.363.009-5.043,6.126,6.077,8.473h-4.846l-3.89-4.9c-.4-.084-4.054,4.775-4.379,4.775h-2.519l5.554-6.654-5.879-7.688.131-.258Zm8.2,13.178-.125-.455-8.724-11.174-.969,0a.531.531,0,0,0,.123.456c2.329,3.652,5.8,7.119,8.209,10.785C646.52,5421.552,647.085,5421.379,647.652,5421.391Z" fill="#fff"/>
  </g>
</svg>
