<svg xmlns="http://www.w3.org/2000/svg" width="29.112" height="29.043" viewBox="0 0 29.112 29.043">
  <g id="Grupo_239" data-name="Grupo 239" transform="translate(-675.231 -5401.066)">
    <path id="Trazado_249" data-name="Trazado 249" d="M688.039,5401.144c12.746-1.228,20.941,12.391,13.44,23-6.239,8.827-19.534,7.535-24.547-1.763C672.147,5413.506,677.965,5402.115,688.039,5401.144Zm.776,1.164a13.247,13.247,0,1,0,10.168,22.7C707.763,5416.311,701.106,5401.44,688.815,5402.308Z" fill="#fff"/>
    <path id="Trazado_253" data-name="Trazado 253" d="M685.455,5409.543a59.953,59.953,0,0,1,10.628.149,2.376,2.376,0,0,1,2.067,1.551c.6,1.607.558,7.041,0,8.669s-2.2,1.645-3.683,1.743a78.048,78.048,0,0,1-9.565-.006c-1.588-.1-3.056-.246-3.593-1.963a22.564,22.564,0,0,1-.032-8.12C681.828,5409.55,683.714,5409.646,685.455,5409.543Zm2.611,8.618,4.393-2.521c.054-.22-.736-.6-.947-.731a31.6,31.6,0,0,0-2.966-1.685.774.774,0,0,0-.48-.1Z" fill="#fff"/>
  </g>
</svg>
